<?xml version="1.0" encoding="UTF-8"?>
<!DOCTYPE svg PUBLIC "-//W3C//DTD SVG 1.1//EN" "http://www.w3.org/Graphics/SVG/1.1/DTD/svg11.dtd">
<svg xmlns="http://www.w3.org/2000/svg" version="1.1" width="555px" height="449px" style="shape-rendering:geometricPrecision; text-rendering:geometricPrecision; image-rendering:optimizeQuality; fill-rule:evenodd; clip-rule:evenodd" xmlns:xlink="http://www.w3.org/1999/xlink">
<g><path fill="#c7c4c4" fill-opacity="0.408" d="M 289.24,289 c 0.11,-53.49 0.12,-106.98 0.02,-160.47 c 0.17,-4.6 4.43,-0.37 5.78,0.92 c 0.91,0.39 1.81,0.78 2.7,1.18 c 1.42,2.93 5.32,6.55 8.16,8.04 c 2.75,2.76 5.34,6.15 8.77,7.97 c 0.26,0.76 0.69,1.4 1.28,1.93 c 2.93,2.03 5.56,4.4 7.89,7.11 c 0.79,0.61 1.63,1.15 2.52,1.62 c 3.15,3.13 6.39,6.19 9.71,9.18 c 0.74,1.19 1.65,2.23 2.72,3.13 c 1.69,1.42 3.39,2.8 5.11,4.16 c 0.56,0.3 1.12,0.59 1.68,0.87 c 1.24,1.15 2.37,2.43 3.37,3.82 c 0.43,0.36 0.89,0.66 1.39,0.9 c 0.46,0.8 0.99,1.55 1.59,2.26 c 1.78,1.27 3.6,2.49 5.45,3.65 c 0.32,0.61 0.72,1.16 1.2,1.67 c 1.79,1.24 3.19,2.83 4.2,4.75 c 1.06,0.61 2.17,1.13 3.31,1.56 c 0.48,0.56 0.93,1.15 1.36,1.75 c 1.74,0.9 3.03,2.22 3.87,3.97 c 1.93,2.55 4.36,4.42 7.3,5.61 c 0.21,0.81 0.6,1.52 1.16,2.12 c 2.51,0.68 1.62,1.3 3.06,2.97 c 2.06,1.63 4.08,3.3 6.05,5 c 1.09,0.83 1.92,1.87 2.5,3.1 c 0.66,-0.97 0.97,-2.05 0.92,-3.24 c -0.06,-28.49 -0.01,-56.98 0.16,-85.46 c 1.23,-0.73 2.58,-1.1 4.03,-1.1 c 9.71,-0.03 19.42,-0.02 29.12,0.04 c 1.42,0.24 2.11,1.07 2.06,2.47 c -0.03,54.69 -0.03,109.37 0.02,164.06 c 0.38,1.92 -1.66,1.48 -2.62,0.82 c -1.98,-2.3 -4.09,-4.46 -6.33,-6.5 c -1.49,-1.2 -3.15,-1.23 -3.8,-3.26 c -2.05,-2.28 -4.19,-4.51 -6.42,-6.7 c -0.77,-0.61 -1.58,-1.16 -2.43,-1.64 c -3.69,-3.45 -7.16,-7.61 -11.41,-10.37 c -3.15,-3.24 -6.34,-6.42 -9.57,-9.54 c -0.61,-0.41 -1.27,-0.75 -1.96,-1.01 c -3.01,-2.99 -6.02,-5.99 -9.02,-8.99 c -1.43,-1.31 -2.95,-2.51 -4.55,-3.59 c -0.82,-1.76 -2.11,-3.05 -3.85,-3.88 c -1.17,-1.24 -2.39,-2.43 -3.65,-3.58 c -1.82,-0.79 -1.62,-0.74 -2.45,-2.48 c -5.9,-5.34 -11.87,-10.63 -17.91,-15.85 c -3.71,-3.72 -7.45,-7.42 -11.21,-11.1 c -1.69,-1.16 -3.35,-2.37 -4.97,-3.63 c -0.45,0.64 -0.61,1.38 -0.48,2.21 c 0.11,3.38 0.13,6.76 0.06,10.15 c 0.94,3.53 0.79,7.34 -0.03,10.89 c 0,19 0.03,38 0.08,57 c 0.04,2.96 -0.11,5.91 -0.46,8.84 c -0.32,0.32 -0.71,0.46 -1.17,0.4 c -10.99,-0.03 -21.97,-0.09 -32.94,-0.17 c -1.21,-0.86 -1.66,-2.04 -1.37,-3.56 Z M 290.46,152 c 0.26,2.14 0.38,4.3 0.36,6.45 c -0.19,44.04 -0.19,88.07 0.01,132.09 c 0.34,0.6 0.86,0.9 1.55,0.9 c 9.38,-0.06 18.75,-0.09 28.12,-0.08 c 1.03,-0.04 2.05,0.08 3.05,0.34 c 0.62,-0.98 0.89,-2.06 0.82,-3.24 c 0.01,-28.94 -0.04,-57.89 -0.13,-86.83 c 0.24,-0.59 0.67,-0.97 1.28,-1.13 c 0.39,1.89 3.8,4.02 5.23,5.37 c 0.52,0.79 1.13,1.5 1.82,2.14 c 1,0.32 2.01,0.55 3.02,0.68 c 0.02,1.17 0.41,2.2 1.16,3.1 c 1.09,0.95 2.27,1.76 3.54,2.44 c 0.39,0.62 0.78,1.24 1.15,1.87 c 1.25,1.08 2.44,2.21 3.58,3.4 c 1.54,1.22 3.03,1.18 4.47,-0.12 c 1.32,1.72 -2.02,0.44 -1.25,2.7 c 0.86,0.99 1.89,1.77 3.08,2.33 c 1.21,1.4 2.41,2.84 3.58,4.32 c 0.56,0.38 1.06,0.3 1.52,-0.22 c -0.04,0.72 0.16,1.37 0.58,1.95 c 1.9,1.13 3.42,2.64 4.55,4.54 c 2.37,0.86 3,3.7 5.73,3.36 c 0.57,1.34 1.33,2.58 2.28,3.72 c 0.64,0.29 1.25,0.61 1.83,0.98 c 2,2.33 4.16,4.51 6.47,6.54 c 0.81,0.52 1.69,0.81 2.64,0.85 c -0.33,0.21 -0.51,0.51 -0.54,0.9 c 1.6,2.18 3.55,3.96 5.88,5.34 c 1.2,1.2 2.43,2.38 3.67,3.52 c 0.43,-0.11 0.74,-0.36 0.94,-0.75 c 0.18,0.62 0.35,1.26 0.51,1.91 c 1.46,1.5 2.58,1.59 3.37,3.78 c 1.26,1.11 2.61,2.11 4.05,2.99 c 1.55,1.68 3.77,4.34 5.91,5.21 c 0.94,2.42 2.01,2.45 3.22,0.08 c 0.19,0.22 0.23,0.47 0.11,0.75 c -0.76,0.58 -1.07,1.31 -0.93,2.2 c 1.64,1.28 3.25,2.59 4.84,3.93 c 0.48,-0.06 0.84,-0.28 1.08,-0.66 c 0.21,1.65 0.83,3.12 1.88,4.42 c 3.32,2.66 6.57,5.4 9.75,8.23 c 0.55,0.45 1.54,3.63 2.58,2.12 c 0,-54.31 0.06,-108.63 0.16,-162.95 c 0,-1.65 -0.82,-2.5 -2.45,-2.57 c -9.35,0.09 -18.7,0.12 -28.05,0.1 c -3.55,-0.05 -3.15,2.92 -3.34,5.5 c -0.06,24.35 -0.08,48.7 -0.06,73.05 c 0.03,1.1 0.22,2.18 0.57,3.23 c -0.11,1.58 -1.24,2.11 -0.04,3.72 c -0.56,1.05 -0.59,2.12 -0.09,3.2 c -0.7,2.72 -1.42,1.22 -3.16,0.59 c -0.92,-2.91 -3.02,-2.57 -4.57,-4.77 c -0.54,0 -1.06,-0.08 -1.57,-0.26 c -1.1,-1.54 -2.19,-3.1 -3.29,-4.65 c -0.68,-0.66 -1.42,-1.25 -2.21,-1.78 c -0.98,-2.34 -2.78,-2.04 -4.56,-3.5 c -1.41,-1.7 -3.07,-3.07 -4.99,-4.13 c -0.32,-0.7 -0.57,-1.43 -0.73,-2.19 c -1.06,-0.9 -2.07,-1.85 -3.02,-2.85 c -0.77,-0.2 -1.52,-0.48 -2.23,-0.82 c -1.2,-1.46 -2.4,-2.93 -3.58,-4.41 c -0.91,-0.84 -2.16,-1.66 -3.1,-0.36 c -0.11,-0.72 -0.47,-1.26 -1.08,-1.62 c -2.27,1.15 -2.49,0.92 -0.65,-0.69 c 0.87,-1.79 -2.7,-3.08 -3.67,-3.98 c -1.66,-2.02 -0.95,-2.93 -3.74,-1.38 c -0.96,0.52 -0.58,2.46 -1.93,1.66 c 0.49,-0.47 0.82,-1.03 1,-1.69 c 0.58,-0.37 1.12,-0.8 1.61,-1.27 c -0.7,-2.52 -4.19,-4.56 -6.03,-6.25 c -0.9,-0.2 -1.37,0.18 -1.42,1.16 c -1.09,-1.01 -2.16,-1.01 -3.19,0.03 c -0.13,-0.25 -0.17,-0.51 -0.11,-0.79 c 0.73,-0.32 1.41,-0.72 2.05,-1.22 c 0.19,-0.71 0,-1.29 -0.57,-1.76 c -3.94,-3.74 -7.84,-7.54 -11.71,-11.39 c -0.68,-0.83 -1.53,-1.13 -2.54,-0.89 c -1.08,-2.36 -3.45,-4.49 -5.71,-5.78 c -0.45,-0.59 -0.89,-1.19 -1.3,-1.81 c -0.97,-0.68 -2.01,-1.22 -3.11,-1.61 c -0.15,-1.71 -1.38,-3.23 -2.97,-1.64 c 0.03,-0.72 -0.03,-1.42 -0.19,-2.11 c -0.78,-1 -1.75,-1.75 -2.91,-2.26 c -0.73,-2.06 -3.34,-3.94 -5.18,-4.98 c -1.42,-1.65 -2.99,-3.14 -4.69,-4.47 c -0.47,0.01 -0.83,0.21 -1.09,0.6 c 0.52,-2.25 -0.37,-3.52 -2.66,-3.8 c -0.76,-0.9 -1.61,-1.7 -2.56,-2.4 c -0.53,-0.37 -0.98,-0.29 -1.35,0.24 c -0.09,7.84 -0.21,15.69 -0.35,23.53 Z"/></g>
<g><path fill="#cac6c6" fill-opacity="0.439" d="M 323.03,56.78 c -0.3,0.62 -0.79,0.92 -1.49,0.9 c -6.02,0.94 -0.9,-6.31 -6.01,-7.23 c 0.6,-0.47 0.65,-0.97 0.15,-1.52 c -1.62,-1.06 -3.2,-2.17 -4.74,-3.32 c -1.05,-1.38 -4.38,-6.21 -6.5,-5.05 c -0.29,-0.5 -0.67,-0.91 -1.14,-1.24 c -2.77,-1.03 -6.05,-3.43 -9.03,-1.98 c -1.93,-1.22 -7.54,-0.63 -4.41,2.3 c 1.73,0.41 3.34,1.11 4.82,2.1 c 0.3,-0.03 0.59,-0.12 0.85,-0.27 c 0.99,1.4 2.35,2.04 4.06,1.92 c -1.07,1.02 -1.42,2.28 -1.05,3.77 c -0.5,1.12 -1,2.24 -1.5,3.36 c 0.64,1.6 1.41,3.14 2.32,4.64 c 2.39,1.55 4.54,3.4 6.44,5.56 c 3.11,0.89 4.39,-2.18 6.77,1.93 c 0.33,0.93 -0.65,6.93 1.91,4.91 c 0.01,1.53 0.74,2.62 2.17,3.27 c 1.97,0.36 3.24,-2.02 4.56,-3.12 c 2.07,-1.18 3.89,-2.69 5.46,-4.51 c 0.51,-0.83 0.68,-1.72 0.53,-2.67 c -1.02,-1.28 -2.14,-2.47 -3.36,-3.56 c 2.17,0.07 5.09,2.83 4.58,5.12 c -0.73,0.88 -1.42,1.78 -2.09,2.71 c -2.75,2.24 -5.36,4.57 -7.84,7 c -0.99,0.11 -1.98,0.07 -2.96,-0.1 c -0.8,-1.32 -1.83,-2.43 -3.1,-3.34 c -0.17,-2.93 0.44,-7.22 -3.89,-7.03 c -0.97,0.33 -1.96,0.5 -2.98,0.51 c -1.22,-0.82 -2.38,-1.71 -3.48,-2.66 c -0.24,-0.59 -1.22,-2.1 -1.81,-0.91 c 0.48,0.52 1.09,0.83 1.81,0.91 c 0.39,2.67 -2.71,3.4 -3.81,5.53 c -0.31,0.19 -0.65,0.25 -1.01,0.19 c 0.46,-0.94 0.96,-1.86 1.51,-2.75 c 1.32,-1.33 3.29,-1.68 0.63,-2.77 c -0.37,-1.01 -2.04,-3.84 -3.42,-3.14 c -0.72,0.32 -1.41,0.7 -2.06,1.16 c -3.22,2.8 -6.19,5.83 -8.92,9.1 c -1.25,1.19 -2.66,2.15 -4.22,2.86 c -0.57,0.43 -2.16,1.69 -1.28,2.51 c 1.5,1.22 2.95,2.5 4.34,3.85 c 0.83,0.57 1.7,0.65 2.61,0.23 c 1.22,-1.75 2.62,-3.36 4.19,-4.82 c 0.94,-1.09 -0.16,-1.34 -0.36,-2.43 c 0.8,-0.11 1.5,-0.42 2.09,-0.94 c 0.17,-2.66 0.69,-1.04 2.2,-0.5 c 0.67,-0.78 1.51,-1.23 2.5,-1.34 c -0.38,0.8 -0.94,1.47 -1.67,2.01 c -3.1,2.25 -5.69,5 -7.75,8.25 c -0.86,0.35 -1.52,0.91 -1.96,1.68 c -0.41,-0.03 -0.67,0.12 -0.78,0.46 c 0.29,0.27 0.63,0.46 1.01,0.58 c 2.63,2.88 5.28,5.76 7.94,8.64 c 1.06,0.25 2.06,0.63 3.02,1.14 c 1.83,2.47 3.84,4.76 6.04,6.87 c 1.19,0.76 2.33,1.61 3.41,2.53 c 0.23,1.09 0.29,2.21 0.17,3.35 c -1.96,1.98 -4.84,6.5 -7.96,6.39 c -2.13,-0.22 -3.62,-1.33 -4.45,-3.33 c -2.17,-2.16 -4.38,-4.29 -6.64,-6.38 c -2.52,-2.87 -5.02,-5.76 -7.52,-8.65 c -1.44,-1.35 -2.58,0.14 -3.21,-2.26 c 0.12,-1.25 -1.66,-3.62 -2.63,-1.95 c 0.44,0.98 1.19,1.58 2.27,1.8 c -0.45,0.2 -0.8,0.51 -1.07,0.93 c -0.98,3.19 -4.54,4.59 -5.61,7.39 c -0.61,0.29 -1.2,0.63 -1.77,1 c -1.31,2.64 -2.03,2.95 -4.53,4.49 c -1.82,2.43 -3.8,4.72 -5.94,6.87 c -2.26,0.38 -4.13,-0.32 -5.62,-2.09 c -1.56,-1.66 -3.04,-3.39 -4.45,-5.18 c 0.36,-1.14 0.83,-2.23 1.44,-3.25 c 0.84,-0.44 1.6,-0.97 2.3,-1.61 c 2.21,-2.12 4.32,-4.33 6.34,-6.63 c 2.07,-1.23 3.89,-2.75 5.44,-4.57 c 0.84,-0.51 1.68,-1.02 2.52,-1.53 c 1.67,-2.31 0.67,-3.13 4.26,-2.76 c 0.1,-0.17 0.21,-0.35 0.31,-0.52 c -0.83,-0.84 -1.69,-1.66 -2.6,-2.44 c -1.59,-2.41 -2.2,-3.7 -4.77,-5.28 c -2.32,-2.33 -4.54,-4.77 -6.65,-7.3 c -0.39,-0.39 -0.84,-0.71 -1.34,-0.96 c -0.38,-0.82 -0.86,-1.59 -1.45,-2.3 c -0.46,-0.83 0.56,-2.67 -0.63,-2.92 c -1.23,0.9 -2.3,1.95 -3.2,3.16 c -1.63,0.26 -3.28,0.32 -4.93,0.18 c -0.69,0.34 -1.31,0.78 -1.85,1.32 c -0.5,1.7 -0.86,3.43 -1.09,5.21 c -1.7,2.32 -3.05,4.75 -6.28,2.97 c -1.31,-1.73 -2.93,-3.11 -4.86,-4.14 c -0.69,-0.61 -1.25,-1.32 -1.69,-2.13 c -2.22,-1.05 -3.04,-2.76 -2.47,-5.13 c 1.04,-2.13 2.93,-2.2 4.74,-3.34 c 1.17,-0.06 2.33,-0.19 3.47,-0.39 c 0.99,-1.16 1.38,-2.51 1.17,-4.03 c 0.67,-2.18 1.97,-3.89 3.89,-5.14 c 1.54,-1.16 3.2,-0.92 3.78,-3.09 c 0.99,-0.73 1.84,-1.6 2.53,-2.63 c 3.06,-2.11 6.36,-3.72 9.9,-4.81 c 2.27,-0.23 4.55,-0.42 6.83,-0.57 c 2.22,-1.02 8.85,-2.01 7.29,2.42 c -2.76,1.3 -5.57,2.5 -8.44,3.6 c -1.15,0.84 -2.31,1.68 -3.47,2.5 c -2.18,3.05 2.34,5.34 -0.48,9.29 c 1.04,1.9 2.61,3.15 4.71,3.76 c 0.83,1.18 1.88,2.12 3.15,2.81 c 1.57,2.09 3.35,3.95 5.33,5.6 c 1.27,1.21 2.68,2.21 4.23,3 c 1.77,2.79 2.9,3.72 4.8,0.29 c 2.18,-1.44 4.21,-3.08 6.09,-4.91 c 1.94,-2.39 4.05,-4.62 6.34,-6.68 c 1.8,-1.12 3.66,-2.12 5.58,-2.98 c -0.83,-1.18 -1.37,-2.48 -1.61,-3.9 c 0.83,-1.57 1.36,-3.25 1.6,-5.03 c -0.25,-1.04 -0.88,-1.79 -1.87,-2.25 c -3.55,-1.64 -7.08,-3.31 -10.59,-5.02 c -1.82,-1.57 -0.24,-2.73 1.42,-3.24 c 4.25,0.75 8.54,1.19 12.86,1.32 c 2.24,1.23 4.56,2.28 6.97,3.14 c 0.85,0.68 1.74,1.3 2.67,1.86 c 0.92,1.41 2.02,2.66 3.31,3.75 c 2.03,1.26 3.88,2.74 5.55,4.43 c 0.53,2.17 1.01,4.34 1.43,6.52 c 1.46,1.65 3.08,-0.44 3.68,0.67 Z M 285.66,37.03 c 0.42,0.84 1.09,1.21 2.04,1.1 c 0.76,-0.71 0.68,-1.32 -0.23,-1.83 c -0.65,0.12 -1.26,0.36 -1.81,0.73 Z M 226.95,62.09 c 2.18,1.46 3.69,4.51 6.26,5.21 c 0.81,1.2 1.78,2.22 2.92,3.09 c 1.95,1.7 3.97,-1.55 4.95,-2.98 c -0.06,-2.36 0.05,-4.7 0.32,-7.02 c 0.96,1.6 2.63,0.3 3.87,-0.05 c 3.54,2.38 3.3,-0.14 5.38,-2.18 c 0.76,-0.63 1.63,-1.05 2.6,-1.25 c 0.8,-0.95 1.64,-1.88 2.52,-2.77 c 0.36,-1.52 0.76,-3.03 1.2,-4.52 c -0.64,-1.29 -0.97,-2.66 -0.99,-4.11 c 0.77,-1.25 1.54,-2.52 2.32,-3.8 c 3.39,-1.12 6.75,-2.36 10.11,-3.71 c 1.76,-1.45 -2.4,-1.51 -2.92,-1.69 c -2.32,0.44 -4.66,0.59 -7.01,0.43 c -1.53,0.72 -3.13,1.1 -4.82,1.15 c -1.62,0.82 -3.25,1.65 -4.87,2.49 c -3.65,3.65 -7.48,7.12 -11.5,10.42 c -0.5,1.9 -0.87,3.82 -1.1,5.73 c -1.63,1.31 -1.92,0.72 -3.76,0.76 c -2.49,0.56 -5.98,1.53 -5.48,4.8 Z M 255.68,56.33 c 0.38,-0.1 1.58,-0.53 0.79,-1.1 c -0.45,0.24 -0.71,0.6 -0.79,1.1 Z M 272.84,81.19 c -1.01,-0.53 -1.91,-0.41 -2.71,0.37 c 0.95,0.8 1.78,1.72 2.5,2.77 c 2.6,0.49 0.61,-2.16 0.21,-3.14 c 1.87,0.75 1.63,1.63 2.82,2.93 c 1.28,0.73 2.06,1.82 2.33,3.28 c 0.79,0.6 1.65,1.08 2.57,1.44 c 3.31,3.76 6.74,7.45 10.27,11.06 c 1.16,1.57 2.95,-1.71 3.66,-2.45 c 0.16,0.24 0.2,0.5 0.13,0.79 c -0.73,0.66 -1.4,1.38 -1.99,2.16 c 1.29,2.05 3.32,5.87 5.96,6.46 c 2.99,-0.65 3.96,-2.93 6.18,-4.74 c 1.63,-2.24 1.14,-3.86 -1.47,-4.86 c -1.74,-1.67 -3.44,-3.38 -5.09,-5.12 c -0.56,-0.31 -1.14,-0.54 -1.76,-0.68 c 0.49,-0.46 0.53,-0.93 0.11,-1.4 c -0.97,-0.44 -1.92,-0.91 -2.86,-1.41 c -2.1,-1.91 -4.14,-3.89 -6.11,-5.96 c -0.29,-0.6 -0.6,-1.19 -0.93,-1.78 c -1.74,-1.29 -3.51,-2.54 -5.3,-3.76 c -2.47,-2.12 -4.73,-4.47 -6.78,-7.04 c -0.85,-0.69 -1.8,-0.85 -2.86,-0.46 c 0.24,-0.34 0.39,-0.72 0.45,-1.15 c -1.34,-1.05 -2.63,-2.16 -3.86,-3.34 c -0.73,-0.33 -1.37,-0.2 -1.92,0.39 c 0.22,-3.64 -3.05,-4.87 -5.1,-7.2 c -1.27,-0.49 -2.31,-1.72 -3.71,-1.6 c -2.67,1.53 -5.51,3.31 -1.87,6.17 c 0.71,0.29 1.32,0.15 1.84,-0.43 c 0.34,1.41 -0.17,2.93 1.98,2.96 c -0.53,0.47 -0.61,1.01 -0.25,1.6 c 1.57,1.52 3.13,3.05 4.68,4.6 c 2.28,0.91 2.79,2.85 4.07,4.76 c 1.89,1.3 3.5,2.9 4.81,4.78 Z M 278.75,72.81 c 0.1,0.55 0.42,0.93 0.93,1.14 c 0.91,-0.61 -0.64,-1.01 -0.93,-1.14 Z M 280.8,74.73 c 0.1,0.52 0.39,0.91 0.85,1.17 c 0.86,-0.44 -0.71,-1.01 -0.85,-1.17 Z M 248.62,100.14 c 1.71,2.15 3.58,4.17 5.61,6.04 c 0.63,0.55 1.36,0.79 2.2,0.73 c 1.78,-1.57 3.56,-3.16 5.31,-4.78 c 0.33,-0.6 0.26,-1.16 -0.22,-1.68 c 2.22,-0.37 5.2,-2.46 5.78,-4.78 c 1.61,-1.05 2.33,-1.88 0.17,-3.23 c 0.73,0.17 1.44,0.5 2.12,0.98 c 0.81,-0.78 1.1,-1.73 0.89,-2.86 c 0.46,0.77 1.02,0.87 1.69,0.31 c 2.84,-2.57 2.6,-4.77 -0.74,-6.58 c -0.75,-1.01 -1.54,-1.99 -2.37,-2.93 c -1.37,-1.29 -2.15,1.59 -2.84,2.23 c -1.92,0.72 -3.4,1.96 -4.43,3.72 c -1.06,0.61 -2.07,1.29 -3.03,2.04 c -1.55,1.44 -2.89,3.05 -4.01,4.84 c -0.61,0.37 -1.24,0.72 -1.88,1.04 c -1.03,1.69 -4.29,2.89 -4.25,4.91 Z"/></g>
<g><path fill="#c1bebf" fill-opacity="0.431" d="M 266.13,200.83 c -0.36,-0.34 -0.62,-0.74 -0.78,-1.21 c 0.21,-2.68 0.57,-5.38 1.07,-8.11 c -0.41,-3 -0.61,-6.01 -0.6,-9.04 c -0.5,-1.91 -0.8,-3.84 -0.91,-5.81 c -0.58,-2.37 -1.22,-4.73 -1.92,-7.08 c -0.36,-0.59 -0.89,-0.93 -1.59,-1.01 c 0.37,-1.03 1.17,-2.99 -0.88,-1.99 c 0.12,-1.19 0.1,-2.39 -0.05,-3.62 c -2.28,-3.16 -4.23,-6.52 -5.84,-10.07 c -2.57,-2.49 -5.09,-5.04 -7.54,-7.65 c -1.37,-1.26 -1.21,0.56 -1.83,0.16 c -0.12,-1.03 1.15,-1.38 0.31,-2.2 c -1.9,-0.81 -3.72,-1.77 -5.45,-2.88 c -0.57,-0.27 -1.1,-0.2 -1.57,0.23 c -0.18,-0.66 -0.55,-1.19 -1.11,-1.58 c -1.35,-1.2 -2.79,-2.32 -4.31,-3.36 c -1.79,-0.19 -2.98,-1.4 -4.7,-0.04 c -0.44,-2.43 -1.77,-3.08 -3.99,-1.93 c -0.62,-2.16 -2.27,-2.4 -3.98,-1.06 c -0.31,-1.81 -0.97,-1.51 -2.31,-1.34 c -1.54,-0.35 -3.06,-0.78 -4.56,-1.3 c -3.51,-0.3 -7,-0.49 -10.48,-0.55 c -0.54,-0.19 -1.09,-0.34 -1.65,-0.44 c -23.67,0.16 -47.32,0.12 -70.97,-0.13 c -0.98,-0.08 -1.85,0.16 -2.64,0.72 c -0.16,2.96 -0.34,5.95 -0.56,8.96 c 0.27,1.34 0.51,2.68 0.72,4.03 c -0.13,42.97 -0.12,85.93 0.02,128.9 c -0.22,1.37 -0.47,2.72 -0.75,4.07 c 0.05,3 0.05,6 0.01,9 c 0.58,1.94 0.85,3.93 0.79,5.96 c 0.15,0.2 0.3,0.4 0.45,0.6 c 5.97,-0.23 11.94,-0.33 17.93,-0.31 c 4.71,-0.01 9.4,0.11 14.08,0.35 c 0.53,-0.35 0.79,-0.84 0.77,-1.48 c 0.02,-11.05 0.01,-22.1 -0.04,-33.16 c 0.32,-1.74 1.39,-2.6 3.22,-2.55 c 12.6,-0.09 25.2,0 37.78,0.28 c 2.29,1.51 2.56,2.9 3.58,5.27 c 0.51,0.49 1.08,0.89 1.71,1.2 c 0.15,1.38 0.81,2.42 1.97,3.15 c 1.03,1.69 2.11,3.35 3.26,4.97 c 1.45,2.55 2.85,5.13 4.19,7.73 c 1.29,2.46 3.31,1.16 4.61,2.93 c -1.53,0.88 -0.78,2.16 -0.86,3.57 c -1.44,-2.21 -3.1,-4.27 -5,-6.18 c -1.53,-2.45 -1.65,-5.1 -4.08,-6.97 c -0.83,-2.32 -2.17,-4.32 -4.01,-5.99 c -1.86,-2.55 -3.5,-5.23 -4.93,-8.03 c -0.28,-0.46 -0.68,-0.78 -1.18,-0.96 c -12.34,-0.24 -24.67,-0.31 -37.01,-0.22 c -1.48,0.34 -2.36,1.26 -2.65,2.74 c 0.09,10.7 0.12,21.4 0.11,32.1 c 0.02,1.14 -0.23,2.19 -0.74,3.17 c -10.58,-0.02 -21.17,-0.02 -31.75,0.02 c -2.18,0.05 -3.24,-1.01 -3.15,-3.21 c 0.04,-3.64 0.02,-7.29 -0.06,-10.93 c 0,-49.84 0.06,-99.68 0.2,-149.51 c 0.48,-1.49 3.47,-0.76 4.7,-1.3 c 23.39,0.32 46.81,0.36 70.26,0.13 c 2.93,0.43 5.88,0.61 8.84,0.54 c 2.71,0.65 5.45,1.21 8.2,1.68 c 1.3,0.1 2.61,0.17 3.92,0.22 c 3.57,1.64 7.23,3.01 10.98,4.11 c 2.43,1.88 4.96,3.6 7.59,5.16 c 0.91,0.44 1.85,0.79 2.83,1.05 c 0.78,0.88 1.7,1.56 2.77,2.04 c 0.23,0.49 0.48,0.97 0.73,1.45 c 2.89,2.77 5.71,5.63 8.47,8.56 c 0.6,1.02 1.22,2.03 1.86,3.02 c 0.15,0.86 0.39,1.68 0.74,2.47 c 0.9,1.42 1.92,2.75 3.05,4.01 c 1.26,4.2 2.68,8.35 4.26,12.45 c -0.16,2.13 0.14,4.18 0.92,6.15 c 0.2,3.57 0.43,7.15 0.69,10.71 c -0.34,2.97 -0.54,5.94 -0.61,8.91 c -0.07,0.3 -0.25,0.44 -0.55,0.43 Z"/></g>
<g><path fill="#fdfdfc" fill-opacity="0.996" stroke="#fdfdfc" stroke-width="0.5" stroke-opacity="0.996" d="M 297.26,64.9 c -0.06,0.34 -0.13,0.68 -0.19,1.02 c -0.99,0.11 -1.83,0.56 -2.5,1.34 c -1.51,-0.54 -2.03,-2.16 -2.2,0.5 c -0.59,0.52 -1.29,0.83 -2.09,0.94 c 0.2,1.09 1.3,1.34 0.36,2.43 c -1.57,1.46 -2.97,3.07 -4.19,4.82 c -0.91,0.42 -1.78,0.34 -2.61,-0.23 c -1.39,-1.35 -2.84,-2.63 -4.34,-3.85 c -0.88,-0.82 0.71,-2.08 1.28,-2.51 c 1.56,-0.71 2.97,-1.67 4.22,-2.86 c 2.73,-3.27 5.7,-6.3 8.92,-9.1 c 0.65,-0.46 1.34,-0.84 2.06,-1.16 c 1.38,-0.7 3.05,2.13 3.42,3.14 c 2.66,1.09 0.69,1.44 -0.63,2.77 c -0.55,0.89 -1.05,1.81 -1.51,2.75 Z M 140,345.58 c 3.59,0.48 9.3,0.06 9.34,5.34 c -0.27,3.04 -0.86,2.2 -2.67,1.35 c -2.12,1.33 3.89,1.43 -0.59,3.5 c -2.2,0.29 -5.53,0.94 -7.64,0.31 c -0.93,-1.05 -2.13,-3.13 -0.99,-4.45 c -0.71,-1.27 -1.76,-5.55 1.11,-4.74 c 0.61,0.45 1.27,0.69 1.97,0.71 c -0.43,-0.61 -0.61,-1.28 -0.53,-2.02 Z M 65.28,360.12 c 0.26,-0.65 0.6,-1.25 1,-1.82 c -0.87,-1.32 1.81,-3.01 2.48,-3.98 c 1.57,-0.36 3.17,-0.56 4.79,-0.58 c 1.45,0.1 1.83,0.69 1.14,1.79 c 4.14,-0.09 3.49,3.17 3.24,6.05 c -0.74,0.93 -0.71,4.34 -2.52,2.88 c -0.18,2.22 -2.2,2.37 -3.78,1.32 c -2.11,-2.52 -1.29,-1.34 -2.93,-0.11 c -0.76,-0.82 -1.56,-1.62 -2.4,-2.4 c -0.62,-0.96 -0.96,-2.01 -1.02,-3.15 Z M 476.5,359 c 0.38,-1.31 0.21,-2.84 2.06,-2.5 c -2.36,-3.39 9.91,-3.6 7.02,-1.13 c 0.73,0.41 1.43,0.88 2.1,1.43 c 2.12,3.47 1.04,5.91 -1.24,8.92 c -2.38,-0.02 -3.41,1.48 -5.97,-0.23 c -1.81,1.7 -2.75,-2.02 -3.53,-3.03 c -0.26,-1.14 -0.41,-2.29 -0.44,-3.46 Z M 70.22,365.88 c 0.3,0.03 0.49,0.19 0.57,0.49 c -0.38,0.19 -0.57,0.02 -0.57,-0.49 Z"/></g>
<g><path fill="#cdcaca" fill-opacity="0.482" d="M 370.99,314.25 c 5.76,-0.11 11.52,-0.09 17.28,0.08 c 0.73,0.24 1.47,0.43 2.22,0.58 c 3.61,0.3 7.22,0.43 10.83,0.41 c 4.47,1.61 9.12,0.78 13.77,1.01 c -0.06,0.73 0.81,0.1 1.13,-0.01 c 0.16,0.25 0.39,0.43 0.67,0.54 c 2.21,0.1 4.41,0.35 6.6,0.77 c 3.04,-0.46 6.06,-0.35 9.06,0.32 c 4.22,0.35 8.45,0.48 12.68,0.4 c 3.9,0.82 7.83,1.15 11.81,1 c 0.29,0.22 0.62,0.33 0.98,0.33 c 2.16,0.15 4.32,0.44 6.49,0.87 c 1.24,-0.06 2.47,-0.12 3.71,-0.18 c 0.76,0.73 4.39,0.85 4.38,1.89 c -1.23,3.2 -3.01,6.06 -5.34,8.57 c -1.06,2.58 -2.29,5.08 -3.68,7.49 c -1.43,1.47 -2.77,3.03 -4.02,4.68 c -1.95,3.4 -4,6.75 -6.15,10.03 c -0.31,0.75 -0.59,1.52 -0.83,2.31 c -2.89,2.63 -2.52,3.73 0.14,6.27 c 0.46,1.22 1,2.4 1.64,3.53 c 0.36,1.68 0.01,2.22 1.3,3.55 c 0.16,1.38 0.54,2.7 1.12,3.96 c 3.04,5.96 5.99,11.96 8.84,18 c 0.4,1.6 2.2,6.07 1.77,7.45 c -0.75,0.6 -1.62,0.79 -2.61,0.57 c -2.32,-0.97 -4.74,-1.29 -7.25,-0.95 c -2.98,-0.67 -5.99,-1.05 -9.04,-1.15 c -2.74,0.39 -5.42,0.18 -8.05,-0.62 c -1.24,-0.28 -6.94,0.26 -7.46,-0.92 c 0.13,-0.24 0.33,-0.39 0.6,-0.42 c 0.74,0.23 1.45,0.23 2.15,0.01 c -0.37,-0.73 -0.46,-1.47 -0.25,-2.22 c 0.68,0.59 1.17,1.31 1.45,2.19 c 1.69,0.14 3.37,0.38 5.04,0.7 c 0.41,0.45 0.73,0.4 0.97,-0.16 c 1.27,0.46 2.24,1.4 2.54,-0.65 c 0.39,0.91 1.09,1.33 2.07,1.29 c 0.2,-0.62 0.56,-1.09 1.08,-1.44 c 1.05,-0.07 1.26,0.35 0.61,1.25 c 1.38,0.28 2.79,0.41 4.23,0.39 c 0.92,-0.5 1.54,-1.27 1.86,-2.31 c 0.39,-0.43 0.81,-0.47 1.26,-0.12 c -0.44,1.07 -1.51,1.63 -0.48,2.73 c 2.44,0.41 4.9,0.69 7.38,0.82 c 0.99,0.09 2.98,1.74 2.75,-0.46 c -0.21,-1.24 -0.47,-2.47 -0.79,-3.69 c -0.99,-1.08 -0.95,-4.63 -2.93,-3.36 c -0.09,-1.24 0.28,-5.27 -2.02,-4.02 c -0.05,-0.72 0.04,-1.43 0.27,-2.15 c -0.75,-1.22 -1.33,-2.51 -1.76,-3.88 c -0.83,-0.93 -1.39,0.63 -1.69,-0.25 c 0.43,-0.53 0.68,-1.13 0.73,-1.79 c -0.89,-1.53 -1.77,-3.08 -2.63,-4.63 c -0.42,-2.07 -0.44,-4.91 -2.96,-5.59 c 0.12,-1.08 0.17,-2.14 0.14,-3.19 c -1.34,-0.91 -2.12,-2.16 -2.35,-3.76 c -0.91,-0.73 -1.33,-1.65 -1.28,-2.77 c 1.39,-1.52 3.42,-2.51 3.22,-4.96 c -0.64,-0.67 -1.24,-1.38 -1.8,-2.12 c 2.04,-0.5 2.1,-1.14 4.09,-0.37 c 0.62,-1.2 1.38,-3.26 0.83,-4.6 c 0.41,-0.59 3.08,-1.16 1.25,-2.01 c 0.83,-0.24 1.56,-0.67 2.19,-1.3 c 0.19,-1.15 -1.6,-3.82 1.57,-2.14 c 0.75,-0.63 2.37,-1.55 1.11,-2.55 c 0.52,-0.31 1.06,-0.6 1.64,-0.86 c 0.81,-1.55 1.67,-3.08 2.59,-4.59 c 1.32,-3.11 -2.54,-0.33 -1,-2.74 c 0.93,0.02 1.84,-0.05 2.75,-0.22 c 1.27,-1.86 2.42,-3.8 3.46,-5.82 c 0.98,-2.07 -4.38,-1.82 -5.34,-1.51 c -1,-0.21 -2,-0.43 -3,-0.67 c -6.33,-0.56 -12.65,-1.16 -18.97,-1.81 c -4.03,-0.03 -8.04,-0.18 -12.06,-0.43 c -1.66,0.52 -3.32,0.54 -4.98,0.05 c -1.06,0.1 -2.11,0.22 -3.16,0.37 c -0.92,-0.49 -1.87,-0.89 -2.86,-1.19 c -2.32,-0.28 -4.63,-0.32 -6.95,-0.15 c -2.76,-1.38 -7.86,-0.7 -11.02,-1.05 c -0.71,-0.02 -1.37,-0.21 -1.98,-0.58 c -1,0.19 -1.99,0.34 -2.98,0.46 c -3.65,-0.9 -7.32,-1.02 -11.03,-0.36 c -4.61,-1.25 -9.3,-1.72 -14.08,-1.39 c -0.68,0.08 -1.18,-0.17 -1.47,-0.76 Z M 453.25,366.59 c 0.38,-0.19 0.38,-0.19 0,0 Z"/></g>
<g><path fill="#d2cfce" fill-opacity="0.467" d="M 183.98,314.3 c -0.88,0.64 -1.04,1.38 -0.48,2.23 c -0.69,0.23 -1.39,0.24 -2.1,0.02 c 0.78,-0.99 0.51,-1.56 -0.82,-1.72 c -3.18,-0.54 -6.28,-0.26 -9.3,0.83 c -3.28,0.09 -6.56,0.17 -9.85,0.24 c -0.66,0.14 -1.3,0.36 -1.91,0.65 c -0.86,-0.36 -1.75,-0.62 -2.67,-0.77 c 0.27,-1.17 3.86,-0.37 4.73,-0.51 c 1.62,-0.3 3.23,-0.63 4.84,-0.99 c 5.84,-0.25 11.69,-0.25 17.56,0.02 Z M 156.85,315.78 c 1.52,3.14 0.51,0.88 -1.38,2.8 c 0.43,-2.94 -1.52,-2.03 -3.46,-2.18 c -2.16,0.58 -4.34,0.67 -6.54,0.29 c -6.66,0.92 -13.31,1.73 -19.97,2.42 c -1.64,-0.58 -3.31,-0.64 -5,-0.17 c -2.39,-0.58 -4.7,-0.4 -6.93,0.55 c -0.67,-0.17 -1.35,-0.27 -2.04,-0.27 c -3.33,0.47 -6.66,0.64 -10.02,0.5 c -1.33,0.39 -4.57,-0.04 -5.02,1.7 c -1.41,-1.3 -5.62,-0.67 -7.18,0.26 c -1.97,-0.05 -4.8,-1.17 -6.18,0.8 c 0.38,0.41 0.82,0.74 1.33,0.98 c -0.54,0.52 -0.63,1.11 -0.26,1.75 c 1.56,2.08 3.1,4.16 4.63,6.24 c 0.82,0.64 1.74,0.98 2.78,1.03 c -1.15,0.57 -1.54,1.44 -1.2,2.6 c 2.98,3.85 5.69,7.89 8.15,12.12 c 0.46,-0.03 0.79,-0.25 0.98,-0.68 c 0.2,0.7 0.53,1.34 0.98,1.93 c -0.34,0.59 -0.46,1.22 -0.38,1.88 c 1.66,2.05 3.17,4.19 4.54,6.43 c 0.15,0.84 0.13,1.68 -0.05,2.51 c -1.35,2.58 -2.73,5.15 -4.14,7.7 c -0.27,1.08 -0.53,2.15 -0.77,3.23 c -0.77,1.82 -1.68,3.58 -2.71,5.27 c 0.02,0.45 0.08,0.88 0.18,1.31 c -2.27,1.8 -2.27,4.16 -3.51,6.54 c -0.88,1.15 -1.65,2.37 -2.31,3.68 c -0.99,3.23 -2.1,6.41 -3.32,9.54 c 0.25,0.57 0.7,0.82 1.34,0.75 c 2.1,-0.13 4.16,-0.43 6.19,-0.89 c 3.25,0.02 6.49,-0.15 9.73,-0.51 c 0.83,-0.38 1.69,-0.5 2.59,-0.35 c 1.01,-0.25 1.94,-0.65 2.81,-1.21 c 2.03,0.51 4.09,0.83 6.19,0.97 c 0.04,0.16 0.08,0.32 0.12,0.48 c -2.17,-0.07 -4.3,0.23 -6.36,0.9 c -2.07,0.09 -4.12,0.05 -6.17,-0.13 c -3.94,0.99 -7.94,1.39 -12,1.19 c -1.37,0.2 -2.71,0.48 -4.04,0.85 c -2.84,-0.19 -1.26,-2.16 -1.09,-3.9 c 1.05,-2.03 1.86,-4.15 2.44,-6.36 c 2.95,-6.32 6.02,-12.6 9.23,-18.81 c 0.27,-0.97 0.51,-1.95 0.71,-2.94 c 1.27,-3 2.61,-5.97 4,-8.89 c -1.23,-2.28 -2.7,-4.39 -4.4,-6.33 c -0.18,-0.8 -0.45,-1.57 -0.8,-2.31 c -1.69,-2.41 -3.26,-4.89 -4.72,-7.44 c -0.54,-0.48 -1.08,-0.96 -1.64,-1.43 c -0.7,-1.5 -1.58,-2.9 -2.64,-4.18 c -0.56,-1.72 -1.23,-3.41 -2.01,-5.04 c -1.44,-1.55 -2.77,-3.2 -4,-4.93 c -2,-4.61 -3.84,-4.31 2.17,-5.7 c 1.27,0 2.54,0.08 3.8,0.23 c 1.57,-0.22 3.1,-0.57 4.61,-1.04 c 2.77,-0.22 5.57,-0.31 8.41,-0.28 c 1.75,-0.17 3.48,-0.48 5.19,-0.91 c 3.28,0.12 6.55,0.05 9.82,-0.21 c 2.05,-0.03 4.06,-0.3 6.04,-0.82 c 2.32,-0.07 4.64,0.05 6.95,0.38 c 3.02,-0.45 6.04,-0.91 9.06,-1.37 c 2.63,0.07 5.27,0.07 7.9,0 c 3.45,-0.84 5.82,-1.42 9.37,-0.53 Z"/></g>
<g><path fill="#c2bfbf" fill-opacity="0.4" d="M 317.9,340.74 c 0.62,-1.68 3.3,-0.1 4.57,-0.05 c 2.38,-0.25 6.88,-0.94 8.98,0.17 c 1.02,-0.74 1.38,-4.19 0.02,-4.83 c -6.67,-0.41 -13.34,-0.53 -20.03,-0.39 c -0.67,0.01 -1.19,0.3 -1.55,0.88 c -0.08,3.02 -0.29,6.03 -0.63,9.03 c 0.17,6.34 0.05,12.66 -0.38,18.98 c 0.04,1.66 0.9,2.41 2.58,2.25 c 1.74,-0.06 3.44,-0.35 5.1,-0.87 c 1.36,0.12 2.69,0.39 3.98,0.81 c 1.69,0.07 3.36,-0.06 5.02,-0.39 c 1.7,-0.07 3.4,0.03 5.08,0.28 c 2.13,0.26 1.54,-2.75 2.2,-4.03 c -0.47,-0.89 -2.67,-0.66 -3.59,-1.27 c -3.6,-0.02 -7.19,-0.12 -10.77,-0.32 c -1.09,-0.03 -2.13,-0.26 -3.12,-0.68 c -0.2,-1.62 -0.3,-3.25 -0.29,-4.89 c -0.12,-0.82 0.07,-1.54 0.55,-2.15 c 2.95,-0.28 5.91,-0.35 8.87,-0.21 c 1.95,0.16 5.84,2.08 5.59,-1.55 c 0.42,-1.4 -0.04,-2.27 -1.37,-2.61 c -3.41,-0.23 -6.83,-0.28 -10.26,-0.15 c -1.57,0.03 -2.59,-0.68 -3.07,-2.14 c 0.44,-1.51 0.5,-3.03 0.19,-4.56 c 0,-0.5 0.74,-2.51 1.36,-1.35 c 0.05,4.74 -2.29,8.38 4.55,7.7 c 2.66,-0.52 5.33,-0.67 8.03,-0.45 c 0.94,0.09 1.39,0.6 1.33,1.54 c -0.04,1.32 -0.05,2.64 -0.03,3.97 c 0.14,1.98 -3.88,0.66 -4.98,1 c -2.64,-1.1 -5.57,-0.86 -8.36,-0.63 c -1.3,0.95 -1.82,2.91 -0.03,3.64 c -2,0.26 -1.6,2.16 0.05,2.61 c 4.66,0.21 9.33,0.32 14.01,0.33 c 0.97,0.07 1.68,0.54 2.12,1.4 c -0.12,1.77 0.94,5.02 -1.27,5.82 c -4.61,0.01 -9.22,0.01 -13.83,0 c -0.7,-0.01 -1.37,-0.16 -2.01,-0.45 c -0.98,0.29 -1.98,0.45 -3.01,0.45 c -1.75,-0.22 -3.46,-0.36 -5.14,-0.41 c -0.62,-2.9 -0.61,-5.79 0.03,-8.68 c -0.11,-5.68 -0.07,-11.36 0.11,-17.03 c -0.53,-1.86 0.43,-6.9 -1,-8.03 c 1.89,0.74 3.87,1.34 5.95,1.8 c 2.69,-0.02 5.38,0.01 8.07,0.11 c 3.3,-0.47 6.59,-0.69 9.9,-0.69 c 0.8,0.11 1.49,0.44 2.07,0.99 c -0.12,1.3 -0.22,2.59 -0.3,3.86 c -0.13,0.93 1.14,1.51 0.06,2.04 c -3.89,0.04 -7.77,0.04 -11.66,0.02 c -1.06,-0.44 -2.12,-0.47 -3.17,-0.09 c -0.27,-0.19 -0.44,-0.45 -0.52,-0.78 Z"/></g>
<g><path fill="#cac6c7" fill-opacity="0.463" d="M 226,352.12 c 1.35,1.12 2.64,2.32 3.87,3.59 c 1.41,2.2 3.2,4.04 5.36,5.53 c 1.11,1.62 2.21,3.23 3.31,4.85 c 1.54,0.89 3.32,-0.17 5.07,0.41 c 1.06,-0.22 1.51,-0.88 1.35,-1.99 c -0.68,-8.27 -0.89,-16.55 -0.64,-24.86 c -0.27,-2.19 0.38,-4.59 -2.78,-4.06 c -1.25,0.25 -3.77,-0.44 -4.49,0.92 c -0.24,4.52 -0.22,9.02 0.07,13.52 c -0.82,0.31 -0.86,0.65 -0.1,1 c -0.04,1.28 -0.62,1.65 -1.74,1.12 c -0.45,-1.97 -1.83,-1.62 -3,-2.88 c -0.47,-1.82 -2.26,-2.48 -3.66,-3.48 c -0.57,-1.09 -1.36,-1.99 -2.35,-2.7 c -0.01,-2.1 -4.26,-5.21 -5.64,-6.77 c -1.01,-0.9 -3.77,0.32 -5.17,-0.04 c 0.27,5.99 0.34,12.01 0.19,18.07 c -0.04,0.88 -0.19,1.74 -0.47,2.58 c -0.4,0.02 -0.67,-0.16 -0.8,-0.55 c 0.04,-2.63 -0.11,-5.25 -0.43,-7.88 c -0.07,-2.4 0.01,-4.79 0.25,-7.17 c -0.09,-0.78 -0.38,-1.49 -0.88,-2.11 c 0.47,-1.42 1.12,-1.34 0.14,-2.71 c 1.45,-1.85 5.75,-1.46 7.8,-1.11 c 1,0.95 2.12,1.72 3.37,2.31 c 0.95,1.67 1.91,3.35 2.88,5.02 c 1.19,-0.08 2.21,-0.52 3.04,-1.34 c 1.05,2.58 -1.92,2.18 -1,3.58 c 1.26,1.44 2.59,2.82 4.01,4.12 c 1.56,0.64 2.49,0.15 2.79,-1.46 c 0.04,-3.39 -0.09,-6.77 -0.4,-10.14 c -0.26,-1.54 0.31,-2.59 1.7,-3.16 c 1.89,0.45 3.8,0.52 5.72,0.22 c 0.41,0.01 0.75,0.18 1,0.5 c 0.23,6.87 0.64,13.75 1.22,20.62 c 0.09,3.55 0.12,7.1 0.09,10.65 c -0.2,0.64 -0.62,1.04 -1.28,1.19 c -2.95,-0.21 -5.68,1.12 -7.68,-1.72 c -1.3,-1.96 -1.07,-3.53 -3.52,-4.5 c -1.64,-1.69 -3.17,-3.49 -4.58,-5.38 c -1.77,-1.62 -2.59,-0.87 -2.62,-3.79 Z"/></g>
<g><path fill="#c9c6c6" fill-opacity="0.439" d="M 380.13,340.03 c 0.12,-2.79 -0.82,-1.42 -2.44,-1.37 c -1.48,-0.73 -2.91,-0.68 -4.3,0.15 c -0.82,1.62 -1.48,3.32 -1.99,5.09 c -1.12,0.88 -1.74,2.04 -1.87,3.46 c -1.94,3.17 -3.56,6.51 -4.86,10.01 c -1.03,0.94 -2.5,1.98 -3.26,0.04 c -0.76,-1.53 -1.11,-3.16 -1.07,-4.86 c -0.8,-2.12 -1.79,-4.15 -2.95,-6.1 c -0.14,-0.96 -0.29,-1.93 -0.44,-2.89 c -1.05,-1.99 -2.01,-4.03 -2.87,-6.12 c -0.96,-0.83 -4.43,-1 -5.71,-0.75 c -2.05,1.67 1.52,3.83 -0.21,4.42 c -0.54,-1.52 -2.91,-4.17 -1.47,-5.63 c 1.55,0.32 7.31,0.02 8.1,1.27 c 1.82,3.58 3.43,7.24 4.85,10.97 c 0.65,2.01 1.3,4.01 1.97,6 c 0.05,1.2 0.29,4.98 2.35,2.73 c 1.29,-2.48 1.72,-5.19 3.57,-7.33 c 1.72,-3.88 3.53,-7.7 5.44,-11.49 c 1.94,-1.5 5.09,0.96 7.54,-1.13 c 0.94,1.49 2.06,2.63 -0.38,3.53 Z M 380.13,340.03 c -0.22,3.54 -2.95,5.76 -3.52,9.28 c -2.11,1.41 -2.25,3.4 -3.64,5.36 c -0.57,2.24 -1.34,4.41 -2.32,6.51 c -1.49,2.24 -2.8,4.58 -3.93,7.02 c -0.91,1.75 -5.34,-0.28 -7.28,1.42 c -1.23,-1.47 -2.14,-3.1 -2.73,-4.9 c -0.38,-0.18 -0.78,-0.26 -1.2,-0.23 c 0.65,-0.49 0.85,-1.11 0.59,-1.87 c -0.95,-0.59 -1.79,-1.3 -2.52,-2.12 c 0.81,-0.4 1.1,-1.04 0.86,-1.92 c -1.21,-2.97 -2.41,-5.93 -3.61,-8.9 c -0.29,-0.57 -0.73,-0.97 -1.33,-1.22 c 0.56,-0.52 0.75,-1.14 0.58,-1.87 c -0.85,-1.38 -1.23,-2.88 -1.13,-4.52 c 1,0.2 2.15,5.26 2.35,6.26 c 2.42,6.48 4.96,12.9 7.62,19.24 c 0.4,0.41 0.9,0.61 1.48,0.61 c 2.7,-0.01 6.11,1.5 6.09,-2.6 c 1.63,-2.41 3.12,-4.92 4.48,-7.51 c 0.61,-2.14 1.36,-4.22 2.26,-6.25 c 2.1,-3.37 3.97,-6.86 5.61,-10.49 c 0.32,-0.55 0.74,-0.98 1.29,-1.3 Z"/></g>
<g><path fill="#d5d2d2" fill-opacity="0.427" d="M 191.92,362.02 c 0.04,0.22 0.07,0.45 0.1,0.67 c -0.84,-0.03 -1.68,-0.12 -2.52,-0.25 c -2.18,-0.01 -7.04,1.69 -8.19,-0.99 c 0.14,-1.19 -0.67,-5.32 0.6,-5.91 c 1.17,-0.3 2.36,-0.54 3.55,-0.73 c 1.78,0.31 3.56,0.28 5.33,-0.08 c 1.55,0.18 3.04,-0.01 4.46,-0.56 c 0.61,-1.06 0.64,-2.12 0.07,-3.2 c -0.11,-0.44 -0.39,-0.74 -0.84,-0.89 c -3.66,-0.04 -7.32,0.04 -10.99,0.25 c -4.02,-0.02 -2.98,-3.1 -3.17,-5.82 c -0.29,-1.45 1.7,-1.63 2.62,-2.06 c 4.5,-0.09 8.99,-0.26 13.47,-0.51 c 1.34,-0.67 0.63,-3.18 0.57,-4.39 c -1.04,-1.17 -2.43,-0.16 -3.67,0.04 c -5.28,-0.02 -10.55,0.09 -15.82,0.34 c -1.53,0.19 -3.82,0.31 -3.78,2.4 c -0.05,5.76 0.24,11.5 0.85,17.23 c -0.09,0.44 -0.19,0.89 -0.32,1.33 c 0.14,0.4 0.3,0.8 0.48,1.19 c -0.12,2.79 -0.05,5.57 0.23,8.34 c 0.36,0.52 0.86,0.74 1.5,0.66 c 2.27,0 4.49,-0.15 6.67,-0.44 c -0.8,2.19 -6.57,1.28 -8.42,1.15 c -0.46,-0.3 -0.71,-0.74 -0.76,-1.29 c -0.04,-1.69 0.04,-3.38 0.25,-5.05 c -0.45,-0.94 -0.72,-1.92 -0.82,-2.95 c -0.26,-5.66 -0.37,-11.32 -0.35,-16.98 c -0.61,-0.63 -1.21,-1.28 -1.79,-1.93 c 0.8,-1.35 1.31,-2.81 1.54,-4.38 c 0.73,-1.32 0.69,-0.43 1.67,-0.03 c 3.71,-0.34 7.42,-0.35 11.14,-0.04 c 0.73,-0.17 1.45,-0.4 2.13,-0.71 c 2.95,0.07 5.89,-0.03 8.83,-0.28 c 1.62,0.11 1.14,1.28 2.04,2.28 c -0.23,0.33 -0.45,0.68 -0.65,1.03 c -0.15,1.14 -0.37,2.23 -0.69,3.29 c -3.25,-0.21 -6.51,-0.19 -9.79,0.06 c -1.62,0.55 -3.27,0.9 -4.97,1.06 c -0.19,0.2 -0.38,0.4 -0.58,0.6 c -0.19,1.27 -0.81,3.84 0.59,4.64 c 3.33,0.22 6.67,0.17 10.01,-0.14 c 1.25,0.05 2.51,0.14 3.75,0.27 c 0.77,0.76 0.71,5.36 -0.34,6.21 c -3.82,0.6 -7.65,0.66 -11.49,0.17 c -0.65,0.08 -1.14,0.4 -1.46,0.97 c -1.02,5.69 -1.27,5.17 4.57,5.55 c 0.98,-0.29 1.99,-0.49 3,-0.62 c 0.56,-0.05 1.02,0.11 1.39,0.5 Z M 171.96,341.14 c 0.05,0.48 0.27,0.64 0.67,0.48 c -0.12,-0.3 -0.34,-0.46 -0.67,-0.48 Z"/></g>
<g><path fill="#bebabb" fill-opacity="0.333" d="M 315.94,389.46 c 1.52,-0.21 3.04,-0.43 4.56,-0.65 c 8.35,-0.01 16.7,0.18 25.03,0.57 c 3.07,0.32 6.05,0.99 9.09,0.19 c 0.27,0.23 0.59,0.37 0.94,0.41 c 6.69,0.28 13.37,0.48 20.04,0.63 c 0.26,0.24 0.56,0.43 0.9,0.56 c 6.32,-0.28 12.64,-0.24 18.96,0.13 c 1.01,0.2 2,0.46 2.98,0.77 c 2.02,-0.26 4.04,-0.3 6.06,-0.12 c 7.36,0.7 14.72,1.42 22.08,2.15 c 3.19,-0.19 -0.43,-2.12 1.71,-1.71 c 1.12,1.87 1.99,1.6 3.92,2.13 c -0.53,0.24 -1.09,0.38 -1.68,0.43 c -3.02,-0.1 -6.05,-0.18 -9.09,-0.24 c -0.95,-0.19 -1.91,-0.38 -2.86,-0.58 c -5.73,-0.11 -11.43,-0.61 -17.09,-1.5 c -1.6,-0.03 -3.2,-0.02 -4.8,0.02 c -1.36,-0.35 -2.75,-0.57 -4.15,-0.67 c -10.02,-0.05 -20.04,-0.15 -30.05,-0.31 c -6.91,-0.98 -13.86,-1.32 -20.84,-1.03 c -1.7,-0.3 -3.41,-0.51 -5.14,-0.63 c -6.86,-0.25 -13.72,-0.44 -20.57,-0.55 Z"/></g>
<g><path fill="#c3bfc0" fill-opacity="0.337" d="M 237.98,388.76 c 0.03,0.34 0.06,0.67 0.08,1 c -8.86,-0.42 -17.7,-0.1 -26.5,0.94 c -6.48,-0.36 -12.92,-0.04 -19.32,0.96 c -11.26,0.1 -22.51,0.27 -33.77,0.53 c -0.55,-0.08 -1.08,-0.25 -1.58,-0.51 c 3.52,-0.42 7.06,-0.65 10.61,-0.69 c 3.69,-0.08 7.37,-0.03 11.05,0.14 c 0.94,-0.15 1.84,-0.41 2.71,-0.76 c 0.57,0.22 1.16,0.35 1.77,0.37 c 9.38,-0.64 18.74,-1.08 28.08,-1.32 c 4.29,-0.09 8.56,-0.23 12.84,-0.42 c 3.46,-0.16 6.94,-0.23 10.42,-0.21 c 0.7,-0.1 1.08,-0.5 1.13,-1.21 c -0.11,1.68 1.29,1.65 2.48,1.18 Z"/></g>
<g><path fill="#c1bdbe" fill-opacity="0.396" d="M 314.81,389.26 c -0.26,0.94 -5.37,0.12 -6.34,0.46 c -2.27,-0.51 -4.57,-0.77 -6.9,-0.77 c -16.71,0.1 -33.41,0.12 -50.12,0.05 c -1.33,0.1 -2.64,0.32 -3.93,0.65 c -2.75,-0.05 -5.5,-0.03 -8.25,0.04 c -0.12,-0.2 -0.24,-0.4 -0.36,-0.59 c 1.54,-0.29 3.08,-0.56 4.62,-0.82 c 4.66,0.22 9.32,0.13 13.97,-0.26 c 18.36,-0.1 36.72,0 55.07,0.3 c 0.8,0.05 1.45,-0.22 1.98,-0.81 c 0.02,0.59 0.11,1.18 0.26,1.75 Z"/></g>
<g><path fill="#c4c0bd" fill-opacity="0.451" d="M 64.25,359.25 c 0.54,-1.04 1,-2.11 1.39,-3.21 c 0.87,-1.1 1.87,-2.06 3,-2.88 c 1.93,-0.28 3.86,-0.33 5.8,-0.16 c 3.38,1.38 4.89,3.89 4.55,7.51 c 0.1,3.46 -1.46,5.85 -4.7,7.15 c -1.52,-0.01 -3.04,-0.03 -4.57,-0.07 c -0.69,-0.31 -1.38,-0.64 -2.06,-0.97 c -1.66,-2.59 -3.53,-3.89 -3.41,-7.37 Z M 65.28,360.12 c 0.06,1.14 0.4,2.19 1.02,3.15 c 0.84,0.78 1.64,1.58 2.4,2.4 c 1.64,-1.23 0.82,-2.41 2.93,0.11 c 1.58,1.05 3.6,0.9 3.78,-1.32 c 1.81,1.46 1.78,-1.95 2.52,-2.88 c 0.25,-2.88 0.9,-6.14 -3.24,-6.05 c 0.69,-1.1 0.31,-1.69 -1.14,-1.79 c -1.62,0.02 -3.22,0.22 -4.79,0.58 c -0.67,0.97 -3.35,2.66 -2.48,3.98 c -0.4,0.57 -0.74,1.17 -1,1.82 Z M 70.22,365.88 c 0,0.51 0.19,0.68 0.57,0.49 c -0.08,-0.3 -0.27,-0.46 -0.57,-0.49 Z"/></g>
<g><path fill="#c5c1c0" fill-opacity="0.455" d="M 475.3,361.06 c -0.27,-2.57 0.96,-4.18 1.93,-6.42 c 5.52,-3.89 10.05,-2.51 12.43,3.77 c 0.1,1.31 0.08,2.62 -0.04,3.93 c -0.77,1.29 -1.41,2.63 -1.94,4.01 c -1.03,0.52 -2.12,0.94 -3.27,1.28 c -1.26,0.11 -2.52,0.14 -3.78,0.1 c -3.65,-1.97 -4.42,-2.63 -5.33,-6.67 Z M 476.5,359 c 0.03,1.17 0.18,2.32 0.44,3.46 c 0.78,1.01 1.72,4.73 3.53,3.03 c 2.56,1.71 3.59,0.21 5.97,0.23 c 2.28,-3.01 3.36,-5.45 1.24,-8.92 c -0.67,-0.55 -1.37,-1.02 -2.1,-1.43 c 2.89,-2.47 -9.38,-2.26 -7.02,1.13 c -1.85,-0.34 -1.68,1.19 -2.06,2.5 Z"/></g>
<g><path fill="#c4c3c2" fill-opacity="0.471" d="M 399.58,354.88 c 0.19,1.52 0.38,3.05 0.56,4.58 c 1,0.71 1.79,1.61 2.36,2.7 c 0.61,-0.25 1.19,-0.55 1.75,-0.91 c 0.34,0.94 0.72,1.88 1.13,2.82 c 0.93,0.64 1.97,0.92 3.1,0.83 c 4.3,0.08 7.32,-1.86 9.04,-5.82 c 1.19,-2.69 0.41,-4.66 0.27,-7.42 c -0.93,-0.78 -1.73,-1.67 -2.41,-2.67 c -0.32,0.04 -0.6,0.16 -0.83,0.37 c -0.22,-1.12 -0.82,-1.99 -1.81,-2.62 c 0.36,-0.38 0.78,-0.44 1.23,-0.18 c 1.62,1.1 3.1,2.34 4.44,3.73 c 0.94,2.74 0.8,6.23 0.27,9.11 c -0.36,0.65 -0.72,1.28 -1.11,1.91 c -1.24,0.99 -2.4,2.08 -3.49,3.27 c -0.62,0.33 -1.23,0.68 -1.84,1.02 c -3.3,0.28 -6.23,0.72 -9.05,-1.3 c -1.19,-1.44 -2.47,-2.77 -3.83,-3.98 c -0.16,-1.29 -0.34,-2.58 -0.57,-3.86 c -0.16,-0.78 0.1,-1.31 0.79,-1.58 Z"/></g>
<g><path fill="#b3adae" fill-opacity="0.349" d="M 225.17,350.79 c -3.28,-1.23 -2.86,3.14 -1.8,4.87 c -0.35,0.88 -0.3,1.75 0.18,2.62 c -0.22,3.15 0.95,6.39 -1.03,9.16 c -2.21,1.13 -4.43,1.12 -6.63,-0.02 c -2.41,-2.75 -0.01,-6.21 -1.49,-8.93 c 0.21,-0.15 0.45,-0.22 0.71,-0.2 c 0.53,0.15 0.76,0.52 0.7,1.1 c 0.29,2.35 0.35,4.71 0.19,7.07 c 0.97,1.23 4.41,0.25 5.68,-0.24 c 1.35,-2.24 0.7,-8.09 0.33,-10.73 c 0.19,-1.85 0.32,-3.7 0.39,-5.56 c 0.71,-1.47 2.54,-0.35 3.22,0.51 c -0.03,0.25 -0.18,0.37 -0.45,0.35 Z"/></g>
<g><path fill="#b3aeac" fill-opacity="0.098" d="M 302.92,312.29 c -15.95,-0.18 -31.89,-0.18 -47.84,0.01 c 0.15,-0.76 0.62,-1.11 1.4,-1.06 c 9.33,-0.27 18.67,-0.37 28.02,-0.32 c 5.94,-0.05 11.88,0.09 17.8,0.45 c 0.37,0.2 0.58,0.51 0.62,0.92 Z"/></g>
<g><path fill="#c7c4c5" fill-opacity="0.4" d="M 133,340.43 c -2.49,0.88 -4.94,-0.25 -3.31,3.3 c -0.19,4.65 0.11,9.27 0.9,13.86 c 0.3,3.78 0.37,7.57 0.23,11.35 c -1.54,-0.02 -1.74,-0.45 -0.6,-1.29 c 0.05,-0.32 0.1,-0.63 0.15,-0.95 c -0.56,-2.43 -0.63,-4.87 -0.21,-7.33 c -0.6,-1.22 -0.93,-2.51 -0.99,-3.88 c -0.68,-4.62 -1.05,-9.29 -1.11,-13.99 c -0.04,-0.55 0.18,-0.96 0.64,-1.24 c 1.03,0 1.96,-0.29 2.8,-0.85 c 0.45,0.41 0.95,0.75 1.5,1.02 Z"/></g>
<g><path fill="#bfbebe" fill-opacity="0.443" d="M 140,345.58 c -0.08,0.74 0.1,1.41 0.53,2.02 c -0.7,-0.02 -1.36,-0.26 -1.97,-0.71 c -2.87,-0.81 -1.82,3.47 -1.11,4.74 c -1.14,1.32 0.06,3.4 0.99,4.45 c 2.11,0.63 5.44,-0.02 7.64,-0.31 c 4.48,-2.07 -1.53,-2.17 0.59,-3.5 c 1.81,0.85 2.4,1.69 2.67,-1.35 c 0.4,0.03 0.62,0.26 0.65,0.7 c -0.54,3.39 -1.2,4.24 -4.43,5.16 c -1.81,0.09 -3.58,0.36 -5.33,0.82 c -1.86,0.33 -3.14,-0.39 -3.86,-2.15 c -0.15,-2.93 -0.19,-5.87 -0.11,-8.82 c 0.54,-0.96 2.7,-1.19 3.74,-1.05 Z"/></g>
<g><path fill="#aaa5a2" fill-opacity="0.157" d="M 201.1,158.08 c -0.65,0.82 -1.51,1.17 -2.58,1.03 c -12.25,-0.09 -24.49,-0.19 -36.73,-0.3 c 0.71,-0.78 1.61,-1.09 2.69,-0.93 c 12.21,-0.02 24.42,0.05 36.62,0.2 Z"/></g>
<g><path fill="#e9e7e8" fill-opacity="0.549" d="M 162.28,224.07 c 12.62,-0.1 25.24,-0.09 37.86,0.04 c -0.08,0.39 -0.31,0.64 -0.7,0.77 c -11.65,0.13 -23.3,0.18 -34.96,0.13 c -0.54,-0.05 -2.48,0.17 -2.2,-0.94 Z"/></g>
<g><path fill="#cfc9c8" fill-opacity="0.412" d="M 266.01,201.93 c 0.05,6.28 -3.32,12.68 -5.58,18.44 c -0.52,1.04 -1.22,1.92 -2.09,2.67 c 1.34,-3.91 2.89,-7.76 4.65,-11.57 c 0,-1.08 -0.17,-2.09 -0.52,-3.03 c 0.52,0.48 1.03,0.49 1.53,0.03 c 0.3,-1.95 0.72,-3.88 1.25,-5.79 c 0.13,-0.38 0.38,-0.63 0.76,-0.75 Z"/></g>
<g><path fill="#cecacb" fill-opacity="0.376" d="M 184.87,368.63 c 4.52,-0.24 9.05,-0.45 13.59,-0.63 c 0.51,-0.33 0.73,-0.8 0.67,-1.42 c 0.03,-5.31 0.38,-4.46 -4.86,-4.17 c -0.45,-0.26 -0.9,-0.52 -1.35,-0.78 c 1.38,-0.08 5.84,-0.83 6.71,0.22 c 0.15,0.9 0.19,1.81 0.12,2.73 c 0.3,0.91 0.55,1.83 0.77,2.76 c -0.63,1.2 -1.63,1.74 -3.01,1.64 c -4.22,-0.28 -8.43,-0.4 -12.64,-0.35 Z"/></g>
<g><path fill="#bcbabb" fill-opacity="0.4" d="M 411.84,345.68 c -1.48,-0.14 -2.93,-0.06 -4.37,0.23 c -0.68,0.78 -1.04,1.71 -1.07,2.77 c -0.13,-0.66 -0.38,-1.26 -0.76,-1.82 c -2.95,0.85 -5.93,3.79 -5.93,7.02 c -0.17,0.01 -0.34,0.03 -0.51,0.05 c -0.18,-1.28 -0.01,-2.54 0.48,-3.76 c 1.63,-2.51 3.87,-4.16 6.72,-4.95 c 1.88,-0.15 3.69,0 5.44,0.46 Z"/></g>
<g><path fill="#e4e3e1" fill-opacity="0.427" d="M 308.97,312.25 c 0.82,-0.24 1.66,-0.36 2.52,-0.37 c 6.37,0.08 12.73,0.16 19.09,0.25 c 0.63,-0.07 1.16,0.1 1.58,0.53 c -7.21,0.43 -14.44,0.51 -21.68,0.23 c -0.66,0.11 -1.17,-0.11 -1.51,-0.64 Z"/></g>
<g><path fill="#e1e0de" fill-opacity="0.471" d="M 247.94,312.32 c -0.29,0.52 -0.76,0.73 -1.41,0.61 c -6.91,0.19 -13.82,0.12 -20.72,-0.21 c 0.19,-0.27 0.45,-0.43 0.78,-0.5 c 6.25,-0.69 12.62,-0.02 18.92,-0.31 c 0.84,-0.01 1.64,0.13 2.43,0.41 Z"/></g>
<g><path fill="#eae8e9" fill-opacity="0.455" d="M 268.86,335.04 c 0.63,0.28 1,0.77 1.1,1.46 c 0.13,6.47 0.07,12.93 -0.18,19.38 c -1.03,0.19 -0.64,-1.93 -0.8,-2.43 c 0.05,-6.14 0.01,-12.28 -0.12,-18.41 Z"/></g>
<g><path fill="#e1e1e1" fill-opacity="0.369" d="M 283.93,334.76 c 0.04,2.82 0.57,18.73 -0.33,20.12 c -0.11,-0.02 -0.23,-0.04 -0.35,-0.07 c -0.26,-6.1 -0.34,-12.21 -0.25,-18.34 c -0.02,-0.76 0.29,-1.33 0.93,-1.71 Z"/></g>
<g><path fill="#a8a7a6" fill-opacity="0.188" d="M 351.88,313.73 c 0.78,-0.52 1.64,-0.8 2.58,-0.84 c 3.27,0.53 6.55,0.68 9.86,0.47 c 0.34,0.11 0.57,0.32 0.69,0.65 c -4.36,0.06 -8.74,-0.04 -13.13,-0.28 Z"/></g>
<g><path fill="#fffdfd" fill-opacity="0.949" d="M 223.95,389 c -4.28,0.19 -8.55,0.33 -12.84,0.42 c 0.2,-0.77 0.68,-1.24 1.44,-1.42 c 3.66,0.04 7.32,-0.01 10.97,-0.14 c 0.46,0.26 0.6,0.64 0.43,1.14 Z"/></g>
<g><path fill="#a1a09e" fill-opacity="0.18" d="M 202.13,313.8 c -3.4,0.25 -6.79,0.33 -10.17,0.21 c 0.12,-0.3 0.34,-0.49 0.67,-0.57 c 3.12,0.16 6.68,-1.3 9.5,0.36 Z"/></g>
<g><path fill="#b7a6a4" fill-opacity="0.071" d="M 272.84,81.19 c 0.4,0.98 2.39,3.63 -0.21,3.14 c -0.72,-1.05 -1.55,-1.97 -2.5,-2.77 c 0.8,-0.78 1.7,-0.9 2.71,-0.37 Z M 276.72,87.2 c -0.12,-0.05 -0.24,-0.1 -0.36,-0.15 c -1.08,-0.22 -1.83,-0.82 -2.27,-1.8 c 0.97,-1.67 2.75,0.7 2.63,1.95 Z"/></g>
<g><path fill="#b0acab" fill-opacity="0.161" d="M 158.38,368.61 c 3.42,3.46 -6.54,2.79 -7.69,1.7 c 1.95,-0.06 3.91,-0.08 5.87,-0.07 c 0.96,-0.15 1.57,-0.7 1.82,-1.63 Z"/></g>
<g><path fill="#bbb6b5" fill-opacity="0.173" d="M 155.96,391.85 c -0.06,0.38 -0.27,0.64 -0.63,0.78 c -2.01,-0.14 -3.98,0.03 -5.93,0.51 c -0.84,0.12 -1.59,-0.09 -2.26,-0.61 c 2.03,-0.98 6.41,-0.46 8.82,-0.68 Z"/></g>
<g><path fill="#fdfdfd" fill-opacity="0.937" d="M 215.89,367.42 c 2.2,1.14 4.42,1.15 6.63,0.02 c 0.12,0.46 0.02,0.87 -0.3,1.22 c -1.56,0.32 -3.14,0.47 -4.75,0.44 c -1.48,0.21 -2.01,-0.35 -1.58,-1.68 Z"/></g>
<g><path fill="#b8afaf" fill-opacity="0.067" d="M 195.32,350.97 c 0.57,1.08 0.54,2.14 -0.07,3.2 c -0.28,-1.07 -0.25,-2.14 0.07,-3.2 Z M 195.25,354.17 c -1.42,0.55 -2.91,0.74 -4.46,0.56 c 0.83,-1.28 3.17,-0.64 4.46,-0.56 Z"/></g>
<g><path fill="#ac9f9f" fill-opacity="0.078" d="M 278.75,72.81 c 0.29,0.13 1.84,0.53 0.93,1.14 c -0.51,-0.21 -0.83,-0.59 -0.93,-1.14 Z M 280.8,74.73 c 0.14,0.16 1.71,0.73 0.85,1.17 c -0.46,-0.26 -0.75,-0.65 -0.85,-1.17 Z M 285.69,77.86 c 0.07,0.35 0.15,0.69 0.23,1.04 c -0.38,-0.12 -0.72,-0.31 -1.01,-0.58 c 0.11,-0.34 0.37,-0.49 0.78,-0.46 Z"/></g>
<g><path fill="#c2bfc2" fill-opacity="0.09" d="M 116.9,395.3 c 0.97,-0.3 1.97,-0.45 2.99,-0.45 c -0.67,1.05 -1.63,1.36 -2.87,0.93 c -0.04,-0.16 -0.08,-0.32 -0.12,-0.48 Z"/></g>
<g><path fill="#d0cbd0" fill-opacity="0.094" d="M 191.92,362.02 c 0.33,-0.13 0.67,-0.26 1,-0.39 c 0.45,0.26 0.9,0.52 1.35,0.78 c -0.7,0.46 -1.45,0.56 -2.25,0.28 c -0.03,-0.22 -0.06,-0.45 -0.1,-0.67 Z"/></g>
<g><path fill="#c2bebe" fill-opacity="0.067" d="M 302.08,59.18 c -0.72,-0.08 -1.33,-0.39 -1.81,-0.91 c 0.59,-1.19 1.57,0.32 1.81,0.91 Z"/></g>
<g><path fill="#b4b4b4" fill-opacity="0.067" d="M 457.04,319.35 c 0.44,-0.16 0.76,-0.05 0.98,0.33 c -0.36,0 -0.69,-0.11 -0.98,-0.33 Z"/></g>
<g><path fill="#a2a2a2" fill-opacity="0.043" d="M 415.09,316.33 c 0.37,-0.01 0.75,-0.01 1.13,-0.01 c -0.32,0.11 -1.19,0.74 -1.13,0.01 Z"/></g>
<g><path fill="#f8f7f7" fill-opacity="0.604" d="M 237.12,350.03 c -0.04,0.33 -0.07,0.67 -0.1,1 c -0.76,-0.35 -0.72,-0.69 0.1,-1 Z"/></g>
<g><path fill="#b4b4b4" fill-opacity="0.161" d="M 262.82,289.22 c 0.65,0.05 0.84,0.39 0.55,1.04 c -0.17,-0.36 -0.35,-0.71 -0.55,-1.04 Z"/></g>
<g><path fill="#aaaaaa" fill-opacity="0.059" d="M 174.24,358.89 c 0.46,0.26 0.62,0.66 0.48,1.19 c -0.18,-0.39 -0.34,-0.79 -0.48,-1.19 Z"/></g>
<g><path fill="#aaaaaa" fill-opacity="0.035" d="M 255.68,56.33 c 0.08,-0.5 0.34,-0.86 0.79,-1.1 c 0.79,0.57 -0.41,1 -0.79,1.1 Z"/></g>
<g><path fill="#b6a4a4" fill-opacity="0.055" d="M 237.98,388.76 c 0.31,0.12 0.62,0.23 0.93,0.34 c 0.12,0.19 0.24,0.39 0.36,0.59 c -0.4,0.02 -0.8,0.04 -1.21,0.07 c -0.02,-0.33 -0.05,-0.66 -0.08,-1 Z"/></g>
<g><path fill="#b6b6b6" fill-opacity="0.055" d="M 132.67,393.93 c 0.12,0.3 0.04,0.54 -0.24,0.7 c -0.26,-0.28 -0.18,-0.51 0.24,-0.7 Z"/></g>
<g><path fill="#fbf6f6" fill-opacity="0.549" d="M 441.97,395.29 c 0.32,-0.05 0.65,-0.1 0.97,-0.16 c -0.24,0.56 -0.56,0.61 -0.97,0.16 Z"/></g>
<g><path fill="#fffffe" stroke="#fffffe" stroke-width="0.5" d="M 285.66,37.03 c 0.55,-0.37 1.16,-0.61 1.81,-0.73 c 0.91,0.51 0.99,1.12 0.23,1.83 c -0.95,0.11 -1.62,-0.26 -2.04,-1.1 Z M 226.95,62.09 c -0.5,-3.27 2.99,-4.24 5.48,-4.8 c 1.84,-0.04 2.13,0.55 3.76,-0.76 c 0.23,-1.91 0.6,-3.83 1.1,-5.73 c 4.02,-3.3 7.85,-6.77 11.5,-10.42 c 1.62,-0.84 3.25,-1.67 4.87,-2.49 c 1.69,-0.05 3.29,-0.43 4.82,-1.15 c 2.35,0.16 4.69,0.01 7.01,-0.43 c 0.52,0.18 4.68,0.24 2.92,1.69 c -3.36,1.35 -6.72,2.59 -10.11,3.71 c -0.78,1.28 -1.55,2.55 -2.32,3.8 c 0.02,1.45 0.35,2.82 0.99,4.11 c -0.44,1.49 -0.84,3 -1.2,4.52 c -0.88,0.89 -1.72,1.82 -2.52,2.77 c -0.97,0.2 -1.84,0.62 -2.6,1.25 c -2.08,2.04 -1.84,4.56 -5.38,2.18 c -1.24,0.35 -2.91,1.65 -3.87,0.05 c -0.27,2.32 -0.38,4.66 -0.32,7.02 c -0.98,1.43 -3,4.68 -4.95,2.98 c -1.14,-0.87 -2.11,-1.89 -2.92,-3.09 c -2.57,-0.7 -4.08,-3.75 -6.26,-5.21 Z M 323.03,56.78 c 0.27,0.06 0.54,0.13 0.81,0.19 c 1.22,1.09 2.34,2.28 3.36,3.56 c 0.15,0.95 -0.02,1.84 -0.53,2.67 c -1.57,1.82 -3.39,3.33 -5.46,4.51 c -1.32,1.1 -2.59,3.48 -4.56,3.12 c -1.43,-0.65 -2.16,-1.74 -2.17,-3.27 c -2.56,2.02 -1.58,-3.98 -1.91,-4.91 c -2.38,-4.11 -3.66,-1.04 -6.77,-1.93 c -1.9,-2.16 -4.05,-4.01 -6.44,-5.56 c -0.91,-1.5 -1.68,-3.04 -2.32,-4.64 c 0.5,-1.12 1,-2.24 1.5,-3.36 c -0.37,-1.49 -0.02,-2.75 1.05,-3.77 c -1.71,0.12 -3.07,-0.52 -4.06,-1.92 c -0.26,0.15 -0.55,0.24 -0.85,0.27 c -1.48,-0.99 -3.09,-1.69 -4.82,-2.1 c -3.13,-2.93 2.48,-3.52 4.41,-2.3 c 2.98,-1.45 6.26,0.95 9.03,1.98 c 0.47,0.33 0.85,0.74 1.14,1.24 c 2.12,-1.16 5.45,3.67 6.5,5.05 c 1.54,1.15 3.12,2.26 4.74,3.32 c 0.5,0.55 0.45,1.05 -0.15,1.52 c 5.11,0.92 -0.01,8.17 6.01,7.23 c 0.7,0.02 1.19,-0.28 1.49,-0.9 Z M 272.84,81.19 c -1.31,-1.88 -2.92,-3.48 -4.81,-4.78 c -1.28,-1.91 -1.79,-3.85 -4.07,-4.76 c -1.55,-1.55 -3.11,-3.08 -4.68,-4.6 c -0.36,-0.59 -0.28,-1.13 0.25,-1.6 c -2.15,-0.03 -1.64,-1.55 -1.98,-2.96 c -0.52,0.58 -1.13,0.72 -1.84,0.43 c -3.64,-2.86 -0.8,-4.64 1.87,-6.17 c 1.4,-0.12 2.44,1.11 3.71,1.6 c 2.05,2.33 5.32,3.56 5.1,7.2 c 0.55,-0.59 1.19,-0.72 1.92,-0.39 c 1.23,1.18 2.52,2.29 3.86,3.34 c -0.06,0.43 -0.21,0.81 -0.45,1.15 c 1.06,-0.39 2.01,-0.23 2.86,0.46 c 2.05,2.57 4.31,4.92 6.78,7.04 c 1.79,1.22 3.56,2.47 5.3,3.76 c 0.33,0.59 0.64,1.18 0.93,1.78 c 1.97,2.07 4.01,4.05 6.11,5.96 c 0.94,0.5 1.89,0.97 2.86,1.41 c 0.42,0.47 0.38,0.94 -0.11,1.4 c 0.62,0.14 1.2,0.37 1.76,0.68 c 1.65,1.74 3.35,3.45 5.09,5.12 c 2.61,1 3.1,2.62 1.47,4.86 c -2.22,1.81 -3.19,4.09 -6.18,4.74 c -2.64,-0.59 -4.67,-4.41 -5.96,-6.46 c 0.59,-0.78 1.26,-1.5 1.99,-2.16 c 0.07,-0.29 0.03,-0.55 -0.13,-0.79 c -0.71,0.74 -2.5,4.02 -3.66,2.45 c -3.53,-3.61 -6.96,-7.3 -10.27,-11.06 c -0.92,-0.36 -1.78,-0.84 -2.57,-1.44 c -0.27,-1.46 -1.05,-2.55 -2.33,-3.28 c -1.19,-1.3 -0.95,-2.18 -2.82,-2.93 Z M 248.62,100.14 c -0.04,-2.02 3.22,-3.22 4.25,-4.91 c 0.64,-0.32 1.27,-0.67 1.88,-1.04 c 1.12,-1.79 2.46,-3.4 4.01,-4.84 c 0.96,-0.75 1.97,-1.43 3.03,-2.04 c 1.03,-1.76 2.51,-3 4.43,-3.72 c 0.69,-0.64 1.47,-3.52 2.84,-2.23 c 0.83,0.94 1.62,1.92 2.37,2.93 c 3.34,1.81 3.58,4.01 0.74,6.58 c -0.67,0.56 -1.23,0.46 -1.69,-0.31 c 0.21,1.13 -0.08,2.08 -0.89,2.86 c -0.68,-0.48 -1.39,-0.81 -2.12,-0.98 c 2.16,1.35 1.44,2.18 -0.17,3.23 c -0.58,2.32 -3.56,4.41 -5.78,4.78 c 0.48,0.52 0.55,1.08 0.22,1.68 c -1.75,1.62 -3.53,3.21 -5.31,4.78 c -0.84,0.06 -1.57,-0.18 -2.2,-0.73 c -2.03,-1.87 -3.9,-3.89 -5.61,-6.04 Z M 290.46,152 c 0.14,-7.84 0.26,-15.69 0.35,-23.53 c 0.37,-0.53 0.82,-0.61 1.35,-0.24 c 0.95,0.7 1.8,1.5 2.56,2.4 c 2.29,0.28 3.18,1.55 2.66,3.8 c 0.26,-0.39 0.62,-0.59 1.09,-0.6 c 1.7,1.33 3.27,2.82 4.69,4.47 c 1.84,1.04 4.45,2.92 5.18,4.98 c 1.16,0.51 2.13,1.26 2.91,2.26 c 0.16,0.69 0.22,1.39 0.19,2.11 c 1.59,-1.59 2.82,-0.07 2.97,1.64 c 1.1,0.39 2.14,0.93 3.11,1.61 c 0.41,0.62 0.85,1.22 1.3,1.81 c 2.26,1.29 4.63,3.42 5.71,5.78 c 1.01,-0.24 1.86,0.06 2.54,0.89 c 3.87,3.85 7.77,7.65 11.71,11.39 c 0.57,0.47 0.76,1.05 0.57,1.76 c -0.64,0.5 -1.32,0.9 -2.05,1.22 c -0.06,0.28 -0.02,0.54 0.11,0.79 c 1.03,-1.04 2.1,-1.04 3.19,-0.03 c 0.05,-0.98 0.52,-1.36 1.42,-1.16 c 1.84,1.69 5.33,3.73 6.03,6.25 c -0.49,0.47 -1.03,0.9 -1.61,1.27 c -0.18,0.66 -0.51,1.22 -1,1.69 c 1.35,0.8 0.97,-1.14 1.93,-1.66 c 2.79,-1.55 2.08,-0.64 3.74,1.38 c 0.97,0.9 4.54,2.19 3.67,3.98 c -1.84,1.61 -1.62,1.84 0.65,0.69 c 0.61,0.36 0.97,0.9 1.08,1.62 c 0.94,-1.3 2.19,-0.48 3.1,0.36 c 1.18,1.48 2.38,2.95 3.58,4.41 c 0.71,0.34 1.46,0.62 2.23,0.82 c 0.95,1 1.96,1.95 3.02,2.85 c 0.16,0.76 0.41,1.49 0.73,2.19 c 1.92,1.06 3.58,2.43 4.99,4.13 c 1.78,1.46 3.58,1.16 4.56,3.5 c 0.79,0.53 1.53,1.12 2.21,1.78 c 1.1,1.55 2.19,3.11 3.29,4.65 c 0.51,0.18 1.03,0.26 1.57,0.26 c 1.55,2.2 3.65,1.86 4.57,4.77 c 1.74,0.63 2.46,2.13 3.16,-0.59 c -0.5,-1.08 -0.47,-2.15 0.09,-3.2 c -1.2,-1.61 -0.07,-2.14 0.04,-3.72 c -0.35,-1.05 -0.54,-2.13 -0.57,-3.23 c -0.02,-24.35 0,-48.7 0.06,-73.05 c 0.19,-2.58 -0.21,-5.55 3.34,-5.5 c 9.35,0.02 18.7,-0.01 28.05,-0.1 c 1.63,0.07 2.45,0.92 2.45,2.57 c -0.1,54.32 -0.16,108.64 -0.16,162.95 c -1.04,1.51 -2.03,-1.67 -2.58,-2.12 c -3.18,-2.83 -6.43,-5.57 -9.75,-8.23 c -1.05,-1.3 -1.67,-2.77 -1.88,-4.42 c -0.24,0.38 -0.6,0.6 -1.08,0.66 c -1.59,-1.34 -3.2,-2.65 -4.84,-3.93 c -0.14,-0.89 0.17,-1.62 0.93,-2.2 c 0.12,-0.28 0.08,-0.53 -0.11,-0.75 c -1.21,2.37 -2.28,2.34 -3.22,-0.08 c -2.14,-0.87 -4.36,-3.53 -5.91,-5.21 c -1.44,-0.88 -2.79,-1.88 -4.05,-2.99 c -0.79,-2.19 -1.91,-2.28 -3.37,-3.78 c -0.16,-0.65 -0.33,-1.29 -0.51,-1.91 c -0.2,0.39 -0.51,0.64 -0.94,0.75 c -1.24,-1.14 -2.47,-2.32 -3.67,-3.52 c -2.33,-1.38 -4.28,-3.16 -5.88,-5.34 c 0.03,-0.39 0.21,-0.69 0.54,-0.9 c -0.95,-0.04 -1.83,-0.33 -2.64,-0.85 c -2.31,-2.03 -4.47,-4.21 -6.47,-6.54 c -0.58,-0.37 -1.19,-0.69 -1.83,-0.98 c -0.95,-1.14 -1.71,-2.38 -2.28,-3.72 c -2.73,0.34 -3.36,-2.5 -5.73,-3.36 c -1.13,-1.9 -2.65,-3.41 -4.55,-4.54 c -0.42,-0.58 -0.62,-1.23 -0.58,-1.95 c -0.46,0.52 -0.96,0.6 -1.52,0.22 c -1.17,-1.48 -2.37,-2.92 -3.58,-4.32 c -1.19,-0.56 -2.22,-1.34 -3.08,-2.33 c -0.77,-2.26 2.57,-0.98 1.25,-2.7 c -1.44,1.3 -2.93,1.34 -4.47,0.12 c -1.14,-1.19 -2.33,-2.32 -3.58,-3.4 c -0.37,-0.63 -0.76,-1.25 -1.15,-1.87 c -1.27,-0.68 -2.45,-1.49 -3.54,-2.44 c -0.75,-0.9 -1.14,-1.93 -1.16,-3.1 c -1.01,-0.13 -2.02,-0.36 -3.02,-0.68 c -0.69,-0.64 -1.3,-1.35 -1.82,-2.14 c -1.43,-1.35 -4.84,-3.48 -5.23,-5.37 c -0.61,0.16 -1.04,0.54 -1.28,1.13 c 0.09,28.94 0.14,57.89 0.13,86.83 c 0.07,1.18 -0.2,2.26 -0.82,3.24 c -1,-0.26 -2.02,-0.38 -3.05,-0.34 c -9.37,-0.01 -18.74,0.02 -28.12,0.08 c -0.69,0 -1.21,-0.3 -1.55,-0.9 c -0.2,-44.02 -0.2,-88.05 -0.01,-132.09 c 0.02,-2.15 -0.1,-4.31 -0.36,-6.45 Z M 266.13,200.83 c -0.04,0.37 -0.08,0.73 -0.12,1.1 c -0.38,0.12 -0.63,0.37 -0.76,0.75 c -0.53,1.91 -0.95,3.84 -1.25,5.79 c -0.5,0.46 -1.01,0.45 -1.53,-0.03 c 0.35,0.94 0.52,1.95 0.52,3.03 c -1.76,3.81 -3.31,7.66 -4.65,11.57 c -1.07,1.05 -1.79,2.3 -2.19,3.75 c -4.52,6.38 -10.49,11.39 -16.4,16.4 c -2.43,0.9 -5.83,1.88 -3.99,5.3 c 1.62,3.08 4.27,6.82 6.42,9.62 c 6.56,10.13 13.77,21.37 20.64,31.11 c 0.2,0.33 0.38,0.68 0.55,1.04 c 0.56,1 0.27,1.5 -0.87,1.51 c -11.61,-0.04 -23.22,-0.08 -34.83,-0.13 c -2.16,-0.27 -2.94,-3.16 -3.77,-4.81 c -0.93,-1.38 -1.99,-2.66 -3.17,-3.82 c 0.08,-1.41 -0.67,-2.69 0.86,-3.57 c -1.3,-1.77 -3.32,-0.47 -4.61,-2.93 c -1.34,-2.6 -2.74,-5.18 -4.19,-7.73 c -1.15,-1.62 -2.23,-3.28 -3.26,-4.97 c -1.16,-0.73 -1.82,-1.77 -1.97,-3.15 c -0.63,-0.31 -1.2,-0.71 -1.71,-1.2 c -1.02,-2.37 -1.29,-3.76 -3.58,-5.27 c -12.58,-0.28 -25.18,-0.37 -37.78,-0.28 c -1.83,-0.05 -2.9,0.81 -3.22,2.55 c 0.05,11.06 0.06,22.11 0.04,33.16 c 0.02,0.64 -0.24,1.13 -0.77,1.48 c -4.68,-0.24 -9.37,-0.36 -14.08,-0.35 c -5.99,-0.02 -11.96,0.08 -17.93,0.31 c -0.15,-0.2 -0.3,-0.4 -0.45,-0.6 c 0.06,-2.03 -0.21,-4.02 -0.79,-5.96 c 0.04,-3 0.04,-6 -0.01,-9 c 0.28,-1.35 0.53,-2.7 0.75,-4.07 c -0.14,-42.97 -0.15,-85.93 -0.02,-128.9 c -0.21,-1.35 -0.45,-2.69 -0.72,-4.03 c 0.22,-3.01 0.4,-6 0.56,-8.96 c 0.79,-0.56 1.66,-0.8 2.64,-0.72 c 23.65,0.25 47.3,0.29 70.97,0.13 c 0.56,0.1 1.11,0.25 1.65,0.44 c 3.48,0.06 6.97,0.25 10.48,0.55 c 1.5,0.52 3.02,0.95 4.56,1.3 c 1.34,-0.17 2,-0.47 2.31,1.34 c 1.71,-1.34 3.36,-1.1 3.98,1.06 c 2.22,-1.15 3.55,-0.5 3.99,1.93 c 1.72,-1.36 2.91,-0.15 4.7,0.04 c 1.52,1.04 2.96,2.16 4.31,3.36 c 0.56,0.39 0.93,0.92 1.11,1.58 c 0.47,-0.43 1,-0.5 1.57,-0.23 c 1.73,1.11 3.55,2.07 5.45,2.88 c 0.84,0.82 -0.43,1.17 -0.31,2.2 c 0.62,0.4 0.46,-1.42 1.83,-0.16 c 2.45,2.61 4.97,5.16 7.54,7.65 c 1.61,3.55 3.56,6.91 5.84,10.07 c 0.15,1.23 0.17,2.43 0.05,3.62 c 2.05,-1 1.25,0.96 0.88,1.99 c 0.7,0.08 1.23,0.42 1.59,1.01 c 0.7,2.35 1.34,4.71 1.92,7.08 c 0.11,1.97 0.41,3.9 0.91,5.81 c -0.01,3.03 0.19,6.04 0.6,9.04 c -0.5,2.73 -0.86,5.43 -1.07,8.11 c 0.16,0.47 0.42,0.87 0.78,1.21 Z M 161.79,158.81 c -0.01,20.9 -0.02,41.8 -0.02,62.71 c -0.01,0.89 0.16,1.74 0.51,2.55 c -0.28,1.11 1.66,0.89 2.2,0.94 c 11.66,0.05 23.31,0 34.96,-0.13 c 0.39,-0.13 0.62,-0.38 0.7,-0.77 c 20.08,0.11 33.01,-17.31 31.13,-36.67 c -2.96,-19 -10.83,-26.46 -30.17,-29.36 c -12.2,-0.15 -24.41,-0.22 -36.62,-0.2 c -1.08,-0.16 -1.98,0.15 -2.69,0.93 Z M 247.94,312.32 c 2.38,0.08 4.76,0.07 7.14,-0.02 c 15.95,-0.19 31.89,-0.19 47.84,-0.01 c 2.02,0.12 4.03,0.1 6.05,-0.04 c 0.34,0.53 0.85,0.75 1.51,0.64 c 7.24,0.28 14.47,0.2 21.68,-0.23 c 6.57,0.4 13.14,0.76 19.72,1.07 c 4.39,0.24 8.77,0.34 13.13,0.28 c 1.99,0.16 3.98,0.24 5.98,0.24 c 0.29,0.59 0.79,0.84 1.47,0.76 c 4.78,-0.33 9.47,0.14 14.08,1.39 c 3.71,-0.66 7.38,-0.54 11.03,0.36 c 0.99,-0.12 1.98,-0.27 2.98,-0.46 c 0.61,0.37 1.27,0.56 1.98,0.58 c 3.16,0.35 8.26,-0.33 11.02,1.05 c 2.32,-0.17 4.63,-0.13 6.95,0.15 c 0.99,0.3 1.94,0.7 2.86,1.19 c 1.05,-0.15 2.1,-0.27 3.16,-0.37 c 1.66,0.49 3.32,0.47 4.98,-0.05 c 4.02,0.25 8.03,0.4 12.06,0.43 c 6.32,0.65 12.64,1.25 18.97,1.81 c 1,0.24 2,0.46 3,0.67 c 0.96,-0.31 6.32,-0.56 5.34,1.51 c -1.04,2.02 -2.19,3.96 -3.46,5.82 c -0.91,0.17 -1.82,0.24 -2.75,0.22 c -1.54,2.41 2.32,-0.37 1,2.74 c -0.92,1.51 -1.78,3.04 -2.59,4.59 c -0.58,0.26 -1.12,0.55 -1.64,0.86 c 1.26,1 -0.36,1.92 -1.11,2.55 c -3.17,-1.68 -1.38,0.99 -1.57,2.14 c -0.63,0.63 -1.36,1.06 -2.19,1.3 c 1.83,0.85 -0.84,1.42 -1.25,2.01 c 0.55,1.34 -0.21,3.4 -0.83,4.6 c -1.99,-0.77 -2.05,-0.13 -4.09,0.37 c 0.56,0.74 1.16,1.45 1.8,2.12 c 0.2,2.45 -1.83,3.44 -3.22,4.96 c -0.05,1.12 0.37,2.04 1.28,2.77 c 0.23,1.6 1.01,2.85 2.35,3.76 c 0.03,1.05 -0.02,2.11 -0.14,3.19 c 2.52,0.68 2.54,3.52 2.96,5.59 c 0.86,1.55 1.74,3.1 2.63,4.63 c -0.05,0.66 -0.3,1.26 -0.73,1.79 c 0.3,0.88 0.86,-0.68 1.69,0.25 c 0.43,1.37 1.01,2.66 1.76,3.88 c -0.23,0.72 -0.32,1.43 -0.27,2.15 c 2.3,-1.25 1.93,2.78 2.02,4.02 c 1.98,-1.27 1.94,2.28 2.93,3.36 c 0.32,1.22 0.58,2.45 0.79,3.69 c 0.23,2.2 -1.76,0.55 -2.75,0.46 c -2.48,-0.13 -4.94,-0.41 -7.38,-0.82 c -1.03,-1.1 0.04,-1.66 0.48,-2.73 c -0.45,-0.35 -0.87,-0.31 -1.26,0.12 c -0.32,1.04 -0.94,1.81 -1.86,2.31 c -1.44,0.02 -2.85,-0.11 -4.23,-0.39 c 0.65,-0.9 0.44,-1.32 -0.61,-1.25 c -0.52,0.35 -0.88,0.82 -1.08,1.44 c -0.98,0.04 -1.68,-0.38 -2.07,-1.29 c -0.3,2.05 -1.27,1.11 -2.54,0.65 c -0.32,0.06 -0.65,0.11 -0.97,0.16 c -1.67,-0.32 -3.35,-0.56 -5.04,-0.7 c -0.28,-0.88 -0.77,-1.6 -1.45,-2.19 c -0.21,0.75 -0.12,1.49 0.25,2.22 c -0.7,0.22 -1.41,0.22 -2.15,-0.01 c -0.27,0.03 -0.47,0.18 -0.6,0.42 c -0.26,-0.17 -0.51,-0.34 -0.77,-0.51 c -1.93,-0.53 -2.8,-0.26 -3.92,-2.13 c -2.14,-0.41 1.48,1.52 -1.71,1.71 c -7.36,-0.73 -14.72,-1.45 -22.08,-2.15 c -2.02,-0.18 -4.04,-0.14 -6.06,0.12 c -0.98,-0.31 -1.97,-0.57 -2.98,-0.77 c -6.32,-0.37 -12.64,-0.41 -18.96,-0.13 c -0.34,-0.13 -0.64,-0.32 -0.9,-0.56 c -6.67,-0.15 -13.35,-0.35 -20.04,-0.63 c -0.35,-0.04 -0.67,-0.18 -0.94,-0.41 c -3.04,0.8 -6.02,0.13 -9.09,-0.19 c -8.33,-0.39 -16.68,-0.58 -25.03,-0.57 c -1.52,0.22 -3.04,0.44 -4.56,0.65 c -0.38,-0.07 -0.76,-0.13 -1.13,-0.2 c -0.15,-0.57 -0.24,-1.16 -0.26,-1.75 c -0.53,0.59 -1.18,0.86 -1.98,0.81 c -18.35,-0.3 -36.71,-0.4 -55.07,-0.3 c -4.65,0.39 -9.31,0.48 -13.97,0.26 c -1.54,0.26 -3.08,0.53 -4.62,0.82 c -0.31,-0.11 -0.62,-0.22 -0.93,-0.34 c -1.19,0.47 -2.59,0.5 -2.48,-1.18 c -0.05,0.71 -0.43,1.11 -1.13,1.21 c -3.48,-0.02 -6.96,0.05 -10.42,0.21 c 0.17,-0.5 0.03,-0.88 -0.43,-1.14 c -3.65,0.13 -7.31,0.18 -10.97,0.14 c -0.76,0.18 -1.24,0.65 -1.44,1.42 c -9.34,0.24 -18.7,0.68 -28.08,1.32 c -0.61,-0.02 -1.2,-0.15 -1.77,-0.37 c -0.87,0.35 -1.77,0.61 -2.71,0.76 c -3.68,-0.17 -7.36,-0.22 -11.05,-0.14 c -3.55,0.04 -7.09,0.27 -10.61,0.69 c -0.31,0.06 -0.62,0.11 -0.93,0.17 c -2.41,0.22 -6.79,-0.3 -8.82,0.68 c -3.67,0.4 -11.4,0.38 -14.47,1.4 c 0,-0.09 0,-0.18 0.01,-0.27 c -4.28,0.19 -8.54,0.59 -12.79,1.19 c -1.02,0 -2.02,0.15 -2.99,0.45 c -2.1,-0.14 -4.16,-0.46 -6.19,-0.97 c -0.87,0.56 -1.8,0.96 -2.81,1.21 c -0.9,-0.15 -1.76,-0.03 -2.59,0.35 c -3.24,0.36 -6.48,0.53 -9.73,0.51 c -2.03,0.46 -4.09,0.76 -6.19,0.89 c -0.64,0.07 -1.09,-0.18 -1.34,-0.75 c 1.22,-3.13 2.33,-6.31 3.32,-9.54 c 0.66,-1.31 1.43,-2.53 2.31,-3.68 c 1.24,-2.38 1.24,-4.74 3.51,-6.54 c -0.1,-0.43 -0.16,-0.86 -0.18,-1.31 c 1.03,-1.69 1.94,-3.45 2.71,-5.27 c 0.24,-1.08 0.5,-2.15 0.77,-3.23 c 1.41,-2.55 2.79,-5.12 4.14,-7.7 c 0.18,-0.83 0.2,-1.67 0.05,-2.51 c -1.37,-2.24 -2.88,-4.38 -4.54,-6.43 c -0.08,-0.66 0.04,-1.29 0.38,-1.88 c -0.45,-0.59 -0.78,-1.23 -0.98,-1.93 c -0.19,0.43 -0.52,0.65 -0.98,0.68 c -2.46,-4.23 -5.17,-8.27 -8.15,-12.12 c -0.34,-1.16 0.05,-2.03 1.2,-2.6 c -1.04,-0.05 -1.96,-0.39 -2.78,-1.03 c -1.53,-2.08 -3.07,-4.16 -4.63,-6.24 c -0.37,-0.64 -0.28,-1.23 0.26,-1.75 c -0.51,-0.24 -0.95,-0.57 -1.33,-0.98 c 1.38,-1.97 4.21,-0.85 6.18,-0.8 c 1.56,-0.93 5.77,-1.56 7.18,-0.26 c 0.45,-1.74 3.69,-1.31 5.02,-1.7 c 3.36,0.14 6.69,-0.03 10.02,-0.5 c 0.69,0 1.37,0.1 2.04,0.27 c 2.23,-0.95 4.54,-1.13 6.93,-0.55 c 1.69,-0.47 3.36,-0.41 5,0.17 c 6.66,-0.69 13.31,-1.5 19.97,-2.42 c 2.2,0.38 4.38,0.29 6.54,-0.29 c 1.94,0.15 3.89,-0.76 3.46,2.18 c 1.89,-1.92 2.9,0.34 1.38,-2.8 c 0.92,0.15 1.81,0.41 2.67,0.77 c 0.61,-0.29 1.25,-0.51 1.91,-0.65 c 3.29,-0.07 6.57,-0.15 9.85,-0.24 c 3.02,-1.09 6.12,-1.37 9.3,-0.83 c 1.33,0.16 1.6,0.73 0.82,1.72 c 0.71,0.22 1.41,0.21 2.1,-0.02 c -0.56,-0.85 -0.4,-1.59 0.48,-2.23 c 2.66,-0.09 5.32,-0.18 7.98,-0.29 c 3.38,0.12 6.77,0.04 10.17,-0.21 c 7.89,-0.46 15.79,-0.82 23.68,-1.08 c 6.9,0.33 13.81,0.4 20.72,0.21 c 0.65,0.12 1.12,-0.09 1.41,-0.61 Z M 316.93,340.7 c 0.32,0.02 0.65,0.03 0.97,0.04 c 0.08,0.33 0.25,0.59 0.52,0.78 c 1.05,-0.38 2.11,-0.35 3.17,0.09 c 3.89,0.02 7.77,0.02 11.66,-0.02 c 1.08,-0.53 -0.19,-1.11 -0.06,-2.04 c 0.08,-1.27 0.18,-2.56 0.3,-3.86 c -0.58,-0.55 -1.27,-0.88 -2.07,-0.99 c -3.31,0 -6.6,0.22 -9.9,0.69 c -2.69,-0.1 -5.38,-0.13 -8.07,-0.11 c -2.08,-0.46 -4.06,-1.06 -5.95,-1.8 c 1.43,1.13 0.47,6.17 1,8.03 c -0.18,5.67 -0.22,11.35 -0.11,17.03 c -0.64,2.89 -0.65,5.78 -0.03,8.68 c 1.68,0.05 3.39,0.19 5.14,0.41 c 1.03,0 2.03,-0.16 3.01,-0.45 c 0.64,0.29 1.31,0.44 2.01,0.45 c 4.61,0.01 9.22,0.01 13.83,0 c 2.21,-0.8 1.15,-4.05 1.27,-5.82 c -0.44,-0.86 -1.15,-1.33 -2.12,-1.4 c -4.68,-0.01 -9.35,-0.12 -14.01,-0.33 c -1.65,-0.45 -2.05,-2.35 -0.05,-2.61 c -1.79,-0.73 -1.27,-2.69 0.03,-3.64 c 2.79,-0.23 5.72,-0.47 8.36,0.63 c 1.1,-0.34 5.12,0.98 4.98,-1 c -0.02,-1.33 -0.01,-2.65 0.03,-3.97 c 0.06,-0.94 -0.39,-1.45 -1.33,-1.54 c -2.7,-0.22 -5.37,-0.07 -8.03,0.45 c -6.84,0.68 -4.5,-2.96 -4.55,-7.7 Z M 215.18,356.93 c -0.02,0.45 -0.05,0.91 -0.07,1.36 c -0.26,-0.02 -0.5,0.05 -0.71,0.2 c 1.48,2.72 -0.92,6.18 1.49,8.93 c -0.43,1.33 0.1,1.89 1.58,1.68 c 1.61,0.03 3.19,-0.12 4.75,-0.44 c 0.32,-0.35 0.42,-0.76 0.3,-1.22 c 1.98,-2.77 0.81,-6.01 1.03,-9.16 c -0.48,-0.87 -0.53,-1.74 -0.18,-2.62 c -1.06,-1.73 -1.48,-6.1 1.8,-4.87 c 0.11,0.55 0.39,0.99 0.83,1.33 c 0.03,2.92 0.85,2.17 2.62,3.79 c 1.41,1.89 2.94,3.69 4.58,5.38 c 2.45,0.97 2.22,2.54 3.52,4.5 c 2,2.84 4.73,1.51 7.68,1.72 c 0.66,-0.15 1.08,-0.55 1.28,-1.19 c 0.03,-3.55 0,-7.1 -0.09,-10.65 c -0.58,-6.87 -0.99,-13.75 -1.22,-20.62 c -0.25,-0.32 -0.59,-0.49 -1,-0.5 c -1.92,0.3 -3.83,0.23 -5.72,-0.22 c -1.39,0.57 -1.96,1.62 -1.7,3.16 c 0.31,3.37 0.44,6.75 0.4,10.14 c -0.3,1.61 -1.23,2.1 -2.79,1.46 c -1.42,-1.3 -2.75,-2.68 -4.01,-4.12 c -0.92,-1.4 2.05,-1 1,-3.58 c -0.83,0.82 -1.85,1.26 -3.04,1.34 c -0.97,-1.67 -1.93,-3.35 -2.88,-5.02 c -1.25,-0.59 -2.37,-1.36 -3.37,-2.31 c -2.05,-0.35 -6.35,-0.74 -7.8,1.11 c 0.98,1.37 0.33,1.29 -0.14,2.71 c 0.5,0.62 0.79,1.33 0.88,2.11 c -0.24,2.38 -0.32,4.77 -0.25,7.17 c 0.32,2.63 0.47,5.25 0.43,7.88 c 0.13,0.39 0.4,0.57 0.8,0.55 Z M 283.93,334.76 c -0.64,0.38 -0.95,0.95 -0.93,1.71 c -0.09,6.13 -0.01,12.24 0.25,18.34 c -1.42,7.06 -10.41,7.17 -13.47,1.07 c 0.25,-6.45 0.31,-12.91 0.18,-19.38 c -0.1,-0.69 -0.47,-1.18 -1.1,-1.46 c -0.32,-0.52 -0.79,-0.76 -1.41,-0.73 c -1.52,0.21 -4.99,-0.78 -5.61,1.19 c -0.28,7 -0.23,14 0.15,21 c 2.08,8.34 11.26,12.56 19.3,10.06 c 12.88,-2.77 9.98,-21.24 9.73,-31.05 c -0.05,-0.53 -0.3,-0.91 -0.77,-1.15 c -1.51,-0.07 -5.11,-0.42 -6.32,0.4 Z M 348.16,341.11 c 0.28,0.31 0.54,0.63 0.79,0.96 c -0.1,1.64 0.28,3.14 1.13,4.52 c 0.17,0.73 -0.02,1.35 -0.58,1.87 c 0.6,0.25 1.04,0.65 1.33,1.22 c 1.2,2.97 2.4,5.93 3.61,8.9 c 0.24,0.88 -0.05,1.52 -0.86,1.92 c 0.73,0.82 1.57,1.53 2.52,2.12 c 0.26,0.76 0.06,1.38 -0.59,1.87 c 0.42,-0.03 0.82,0.05 1.2,0.23 c 0.59,1.8 1.5,3.43 2.73,4.9 c 1.94,-1.7 6.37,0.33 7.28,-1.42 c 1.13,-2.44 2.44,-4.78 3.93,-7.02 c 0.98,-2.1 1.75,-4.27 2.32,-6.51 c 1.39,-1.96 1.53,-3.95 3.64,-5.36 c 0.57,-3.52 3.3,-5.74 3.52,-9.28 c 2.44,-0.9 1.32,-2.04 0.38,-3.53 c -2.45,2.09 -5.6,-0.37 -7.54,1.13 c -1.91,3.79 -3.72,7.61 -5.44,11.49 c -1.85,2.14 -2.28,4.85 -3.57,7.33 c -2.06,2.25 -2.3,-1.53 -2.35,-2.73 c -0.67,-1.99 -1.32,-3.99 -1.97,-6 c -1.42,-3.73 -3.03,-7.39 -4.85,-10.97 c -0.79,-1.25 -6.55,-0.95 -8.1,-1.27 c -1.44,1.46 0.93,4.11 1.47,5.63 Z M 183.12,368.64 c 0.59,0.31 1.17,0.31 1.75,-0.01 c 4.21,-0.05 8.42,0.07 12.64,0.35 c 1.38,0.1 2.38,-0.44 3.01,-1.64 c -0.22,-0.93 -0.47,-1.85 -0.77,-2.76 c 0.07,-0.92 0.03,-1.83 -0.12,-2.73 c -0.87,-1.05 -5.33,-0.3 -6.71,-0.22 c -0.33,0.13 -0.67,0.26 -1,0.39 c -0.37,-0.39 -0.83,-0.55 -1.39,-0.5 c -1.01,0.13 -2.02,0.33 -3,0.62 c -5.84,-0.38 -5.59,0.14 -4.57,-5.55 c 0.32,-0.57 0.81,-0.89 1.46,-0.97 c 3.84,0.49 7.67,0.43 11.49,-0.17 c 1.05,-0.85 1.11,-5.45 0.34,-6.21 c -1.24,-0.13 -2.5,-0.22 -3.75,-0.27 c -3.34,0.31 -6.68,0.36 -10.01,0.14 c -1.4,-0.8 -0.78,-3.37 -0.59,-4.64 c 0.2,-0.2 0.39,-0.4 0.58,-0.6 c 1.7,-0.16 3.35,-0.51 4.97,-1.06 c 3.28,-0.25 6.54,-0.27 9.79,-0.06 c 0.32,-1.06 0.54,-2.15 0.69,-3.29 c 0.2,-0.35 0.42,-0.7 0.65,-1.03 c -0.9,-1 -0.42,-2.17 -2.04,-2.28 c -2.94,0.25 -5.88,0.35 -8.83,0.28 c -0.68,0.31 -1.4,0.54 -2.13,0.71 c -3.72,-0.31 -7.43,-0.3 -11.14,0.04 c -0.98,-0.4 -0.94,-1.29 -1.67,0.03 c -0.23,1.57 -0.74,3.03 -1.54,4.38 c 0.58,0.65 1.18,1.3 1.79,1.93 c -0.02,5.66 0.09,11.32 0.35,16.98 c 0.1,1.03 0.37,2.01 0.82,2.95 c -0.21,1.67 -0.29,3.36 -0.25,5.05 c 0.05,0.55 0.3,0.99 0.76,1.29 c 1.85,0.13 7.62,1.04 8.42,-1.15 Z M 130.82,368.94 c -0.19,1.14 0.07,2.13 0.78,2.99 c 1.91,0.1 3.82,0.04 5.74,-0.17 c 2.72,-0.96 -1.41,-8.51 2.14,-8.85 c 2,-0.8 3.88,-0.62 5.63,0.54 c 1.77,2.36 3.63,4.65 5.58,6.86 c 1.15,1.09 11.11,1.76 7.69,-1.7 c -1.96,-2.29 -3.77,-4.67 -5.46,-7.13 c -0.11,-0.66 0.02,-1.26 0.41,-1.8 c 6.47,-5.65 5.08,-14.98 -1.98,-19.36 c -5.88,-1.62 -12.5,-1.31 -18.35,0.11 c -0.55,-0.27 -1.05,-0.61 -1.5,-1.02 c -0.84,0.56 -1.77,0.85 -2.8,0.85 c -0.46,0.28 -0.68,0.69 -0.64,1.24 c 0.06,4.7 0.43,9.37 1.11,13.99 c 0.06,1.37 0.39,2.66 0.99,3.88 c -0.42,2.46 -0.35,4.9 0.21,7.33 c -0.05,0.32 -0.1,0.63 -0.15,0.95 c -1.14,0.84 -0.94,1.27 0.6,1.29 Z M 391.55,356 c 0,18.97 29.25,22.18 34.07,4.3 c 6.92,-26.09 -35.85,-29.28 -34.07,-4.3 Z M 171.96,341.14 c 0.33,0.02 0.55,0.18 0.67,0.48 c -0.4,0.16 -0.62,0 -0.67,-0.48 Z M 411.84,345.68 c 0.3,0.35 0.6,0.7 0.9,1.06 c 0.99,0.63 1.59,1.5 1.81,2.62 c 0.23,-0.21 0.51,-0.33 0.83,-0.37 c 0.68,1 1.48,1.89 2.41,2.67 c 0.14,2.76 0.92,4.73 -0.27,7.42 c -1.72,3.96 -4.74,5.9 -9.04,5.82 c -1.13,0.09 -2.17,-0.19 -3.1,-0.83 c -0.41,-0.94 -0.79,-1.88 -1.13,-2.82 c -0.56,0.36 -1.14,0.66 -1.75,0.91 c -0.57,-1.09 -1.36,-1.99 -2.36,-2.7 c -0.18,-1.53 -0.37,-3.06 -0.56,-4.58 c 0.04,-0.34 0.08,-0.67 0.13,-1 c 0,-3.23 2.98,-6.17 5.93,-7.02 c 0.38,0.56 0.63,1.16 0.76,1.82 c 0.03,-1.06 0.39,-1.99 1.07,-2.77 c 1.44,-0.29 2.89,-0.37 4.37,-0.23 Z M 453.25,366.59 c 0.38,-0.19 0.38,-0.19 0,0 Z"/></g>
<g><path fill="#090909" fill-opacity="0.008" stroke="#090909" stroke-width="0.5" stroke-opacity="0.008" d="M 391.55,356 c -1.78,-24.98 40.99,-21.79 34.07,4.3 c -4.82,17.88 -34.07,14.67 -34.07,-4.3 Z M 133,340.43 c 5.85,-1.42 12.47,-1.73 18.35,-0.11 c 7.06,4.38 8.45,13.71 1.98,19.36 c -0.39,0.54 -0.52,1.14 -0.41,1.8 c 1.69,2.46 3.5,4.84 5.46,7.13 c -0.25,0.93 -0.86,1.48 -1.82,1.63 c -1.96,-0.01 -3.92,0.01 -5.87,0.07 c -1.95,-2.21 -3.81,-4.5 -5.58,-6.86 c -1.75,-1.16 -3.63,-1.34 -5.63,-0.54 c -3.55,0.34 0.58,7.89 -2.14,8.85 c -1.92,0.21 -3.83,0.27 -5.74,0.17 c -0.71,-0.86 -0.97,-1.85 -0.78,-2.99 c 0.14,-3.78 0.07,-7.57 -0.23,-11.35 c -0.79,-4.59 -1.09,-9.21 -0.9,-13.86 c -1.63,-3.55 0.82,-2.42 3.31,-3.3 Z M 149.34,350.92 c -0.04,-5.28 -5.75,-4.86 -9.34,-5.34 c -1.04,-0.14 -3.2,0.09 -3.74,1.05 c -0.08,2.95 -0.04,5.89 0.11,8.82 c 0.72,1.76 2,2.48 3.86,2.15 c 1.75,-0.46 3.52,-0.73 5.33,-0.82 c 3.23,-0.92 3.89,-1.77 4.43,-5.16 c -0.03,-0.44 -0.25,-0.67 -0.65,-0.7 Z M 399.71,353.88 c -0.05,0.33 -0.09,0.66 -0.13,1 c -0.69,0.27 -0.95,0.8 -0.79,1.58 c 0.23,1.28 0.41,2.57 0.57,3.86 c 1.36,1.21 2.64,2.54 3.83,3.98 c 2.82,2.02 5.75,1.58 9.05,1.3 c 0.61,-0.34 1.22,-0.69 1.84,-1.02 c 1.09,-1.19 2.25,-2.28 3.49,-3.27 c 0.39,-0.63 0.75,-1.26 1.11,-1.91 c 0.53,-2.88 0.67,-6.37 -0.27,-9.11 c -1.34,-1.39 -2.82,-2.63 -4.44,-3.73 c -0.45,-0.26 -0.87,-0.2 -1.23,0.18 c -0.3,-0.36 -0.6,-0.71 -0.9,-1.06 c -1.75,-0.46 -3.56,-0.61 -5.44,-0.46 c -2.85,0.79 -5.09,2.44 -6.72,4.95 c -0.49,1.22 -0.66,2.48 -0.48,3.76 c 0.17,-0.02 0.34,-0.04 0.51,-0.05 Z"/></g>
</svg>
